<svg width="34" height="29" viewBox="0 0 34 29" fill="none" xmlns="http://www.w3.org/2000/svg">
<g clip-path="url(#clip0_177_175)">
<path d="M32.2106 22.256C32.173 22.1736 32.138 22.1054 32.1055 22.0506C31.5677 21.0648 30.5399 19.8548 29.0227 18.4202L28.9907 18.3873L28.9746 18.3712L28.9584 18.3547H28.9421C28.2535 17.6867 27.8175 17.2375 27.6349 17.0076C27.3008 16.5695 27.2259 16.1261 27.4085 15.6768C27.5375 15.3374 28.0221 14.6205 28.8612 13.5253C29.3025 12.9448 29.6521 12.4796 29.9102 12.1291C31.7719 9.6103 32.579 8.00075 32.3314 7.29983L32.2352 7.13603C32.1706 7.03742 32.0038 6.9472 31.7351 6.86493C31.4658 6.78283 31.1216 6.76925 30.7018 6.82397L26.0535 6.85665C25.9782 6.82949 25.8707 6.83202 25.7306 6.86493C25.5907 6.89784 25.5207 6.91435 25.5207 6.91435L25.4398 6.95549L25.3756 7.00491C25.3218 7.03759 25.2626 7.09506 25.198 7.17722C25.1337 7.25909 25.0799 7.35517 25.037 7.46466C24.5309 8.7897 23.9555 10.0217 23.3097 11.1605C22.9116 11.8395 22.5459 12.428 22.212 12.9263C21.8785 13.4245 21.5987 13.7915 21.3729 14.0267C21.1468 14.2622 20.9427 14.4509 20.7594 14.5934C20.5764 14.7359 20.4368 14.7962 20.34 14.7741C20.2431 14.7521 20.1518 14.7302 20.0653 14.7084C19.9148 14.6098 19.7937 14.4756 19.7024 14.3059C19.6107 14.1362 19.549 13.9226 19.5167 13.6652C19.4846 13.4077 19.4656 13.1862 19.4602 13C19.4551 12.814 19.4574 12.5509 19.4684 12.2114C19.4795 11.8718 19.4846 11.642 19.4846 11.5216C19.4846 11.1054 19.4925 10.6537 19.5085 10.1664C19.5248 9.67905 19.538 9.29295 19.549 9.0085C19.56 8.72377 19.5651 8.42253 19.5651 8.10494C19.5651 7.78736 19.5461 7.5383 19.5085 7.35753C19.4715 7.17699 19.4145 7.00175 19.3395 6.83185C19.264 6.66213 19.1536 6.53084 19.0086 6.43763C18.8634 6.34454 18.6828 6.27067 18.468 6.21579C17.8976 6.08444 17.1713 6.01338 16.2888 6.00234C14.2875 5.98047 13.0016 6.112 12.4313 6.39673C12.2053 6.51703 12.0008 6.6814 11.818 6.88933C11.6243 7.13033 11.5972 7.26185 11.7371 7.28349C12.3828 7.38193 12.8399 7.61741 13.109 7.98971L13.2059 8.18699C13.2813 8.32932 13.3566 8.58132 13.432 8.94263C13.5073 9.30394 13.5558 9.70362 13.5772 10.1414C13.6309 10.941 13.6309 11.6254 13.5772 12.1947C13.5233 12.7643 13.4724 13.2077 13.4239 13.5253C13.3753 13.8429 13.3027 14.1002 13.2059 14.2973C13.109 14.4944 13.0445 14.6149 13.0121 14.6586C12.9799 14.7023 12.953 14.7299 12.9316 14.7407C12.7917 14.7952 12.6463 14.823 12.4957 14.823C12.3449 14.823 12.1621 14.7463 11.947 14.5929C11.7319 14.4395 11.5086 14.2288 11.2772 13.9605C11.0458 13.6921 10.7849 13.317 10.4942 12.8353C10.2038 12.3535 9.90252 11.7841 9.59047 11.127L9.33228 10.6506C9.17089 10.344 8.95041 9.89768 8.67063 9.31193C8.39068 8.72596 8.14324 8.15914 7.92814 7.6116C7.84215 7.38164 7.71297 7.20656 7.54083 7.08609L7.46005 7.03667C7.40634 6.99294 7.32013 6.94651 7.20187 6.89704C7.08343 6.84761 6.95985 6.81217 6.83062 6.79037L2.40815 6.82305C1.95623 6.82305 1.6496 6.92724 1.48815 7.13534L1.42353 7.23378C1.39125 7.28861 1.37497 7.37617 1.37497 7.4967C1.37497 7.61718 1.40725 7.76504 1.47187 7.94011C2.11746 9.4843 2.81954 10.9735 3.57809 12.4081C4.33664 13.8426 4.99581 14.9982 5.55519 15.8737C6.11469 16.7499 6.68499 17.5768 7.26609 18.3541C7.84718 19.1316 8.23183 19.6299 8.42002 19.8488C8.60845 20.0682 8.75645 20.2321 8.86403 20.3416L9.26761 20.7358C9.52585 20.9986 9.90507 21.3135 10.4054 21.6802C10.9059 22.0472 11.46 22.4086 12.0679 22.7647C12.676 23.1204 13.3834 23.4106 14.1905 23.635C14.9975 23.8597 15.783 23.9498 16.547 23.9063H18.4032C18.7796 23.8732 19.0648 23.7528 19.2587 23.5448L19.3229 23.4625C19.3661 23.3971 19.4065 23.2956 19.4438 23.159C19.4816 23.0221 19.5004 22.8713 19.5004 22.7073C19.4893 22.2365 19.5245 21.8122 19.605 21.4344C19.6855 21.0568 19.7772 20.772 19.8797 20.5803C19.9822 20.3887 20.0979 20.227 20.2266 20.0959C20.3556 19.9646 20.4475 19.885 20.5015 19.8576C20.5551 19.8301 20.5979 19.8114 20.6301 19.8002C20.8884 19.7126 21.1923 19.7974 21.5424 20.055C21.8921 20.3123 22.2202 20.6301 22.527 21.0077C22.8337 21.3857 23.2022 21.8098 23.6325 22.2806C24.0631 22.7516 24.4396 23.1017 24.7623 23.332L25.085 23.5291C25.3005 23.6606 25.5803 23.7811 25.9247 23.8906C26.2685 24 26.5697 24.0274 26.8283 23.9727L30.9601 23.9071C31.3687 23.9071 31.6867 23.8382 31.9123 23.7016C32.1383 23.5647 32.2726 23.4139 32.3159 23.2499C32.3591 23.0857 32.3614 22.8994 32.3241 22.6911C32.2858 22.4833 32.2481 22.3381 32.2106 22.256Z" fill="#7E1598"/>
</g>
<defs>
<clipPath id="clip0_177_175">
<rect width="32.775" height="28.5" fill="white" transform="translate(0.899994 0.25)"/>
</clipPath>
</defs>
</svg>
