<svg width="40" height="40" viewBox="0 0 40 40" fill="none" xmlns="http://www.w3.org/2000/svg">
<path d="M22.7161 2.71606C13.1883 2.71606 5.44031 10.4722 5.44031 20V20.0571L2.01945 14.9054C1.68471 14.3992 0.998906 14.2605 0.492717 14.5952C-0.0134728 14.9299 -0.152267 15.6157 0.182472 16.1219L5.14639 23.5923C5.32601 23.8617 5.61176 24.0332 5.93017 24.074C5.97916 24.0822 6.01998 24.0822 6.06897 24.0822C6.33839 24.0822 6.59965 23.9842 6.80376 23.7964L13.7026 17.5833C14.1517 17.1751 14.1925 16.4812 13.7843 16.024C13.3761 15.5749 12.6821 15.5341 12.2249 15.9423L7.64469 20.0816V20C7.64469 11.6805 14.4048 4.92044 22.7161 4.92044C31.0274 4.92044 37.7956 11.6805 37.7956 20C37.7956 28.3195 31.0355 35.0795 22.7242 35.0795C18.6992 35.0795 14.911 33.512 12.0698 30.6626C11.6371 30.2299 10.9431 30.2299 10.5104 30.6626C10.0777 31.0953 10.0777 31.7893 10.5104 32.222C13.7761 35.4878 18.1114 37.2839 22.7242 37.2839C32.2439 37.2839 40 29.5359 40 20C40 10.464 32.2439 2.71606 22.7161 2.71606Z" fill="#7E1598"/>
</svg>
