<svg fill="none" height="359" viewBox="0 0 417 359" width="417" xmlns="http://www.w3.org/2000/svg" xmlns:xlink="http://www.w3.org/1999/xlink"><linearGradient id="a"><stop offset="0" stop-color="#ff335f"/><stop offset="1" stop-color="#9d0fc0"/></linearGradient><linearGradient id="b" gradientUnits="userSpaceOnUse" x1="161.933" x2="142.496" xlink:href="#a" y1="221.887" y2="191.915"/><linearGradient id="c" gradientUnits="userSpaceOnUse" x1="132.645" x2="113.901" xlink:href="#a" y1="223.194" y2="194.073"/><linearGradient id="d" gradientUnits="userSpaceOnUse" x1="159.692" x2="143.992" y1="239.818" y2="209.616"><stop offset="0" stop-color="#ff335f"/><stop offset=".468933" stop-color="#d1228c"/><stop offset="1" stop-color="#9d0fc0"/></linearGradient><linearGradient id="e" gradientUnits="userSpaceOnUse" x1="363.994" x2="282.627" xlink:href="#a" y1="96.5834" y2="17.477"/><linearGradient id="f" gradientUnits="userSpaceOnUse" x1="365.629" x2="344.429" xlink:href="#a" y1="98.743" y2="69.3764"/><linearGradient id="g" gradientUnits="userSpaceOnUse" x1="153.549" x2="261.122" xlink:href="#a" y1="287.571" y2="212.719"/><linearGradient id="h" gradientUnits="userSpaceOnUse" x1="145.618" x2="128.986" xlink:href="#a" y1="305.051" y2="285.472"/><linearGradient id="i" gradientUnits="userSpaceOnUse" x1="145.618" x2="131.821" xlink:href="#a" y1="305.051" y2="302.603"/><linearGradient id="j" gradientUnits="userSpaceOnUse" x1="88.4627" x2="105.094" xlink:href="#a" y1="192.176" y2="211.755"/><linearGradient id="k" gradientUnits="userSpaceOnUse" x1="88.4627" x2="102.259" xlink:href="#a" y1="192.176" y2="194.624"/><linearGradient id="l" gradientUnits="userSpaceOnUse" x1="143.431" x2="210.3" xlink:href="#a" y1="295.234" y2="305.553"/><linearGradient id="m" gradientUnits="userSpaceOnUse" x1="59.937" x2="92.1832" xlink:href="#a" y1="327.348" y2="327.717"/><linearGradient id="n" gradientUnits="userSpaceOnUse" x1="45.4531" x2="69.351" xlink:href="#a" y1="283.177" y2="279.258"/><linearGradient id="o" gradientUnits="userSpaceOnUse" x1="95.0918" x2="94.3805" xlink:href="#a" y1="301.794" y2="318.145"/><linearGradient id="p" gradientUnits="userSpaceOnUse" x1="80.7823" x2="95.967" xlink:href="#a" y1="264.133" y2="259.609"/><path d="m139.609 257.393-26.339-34.78 210.499-175.3384 41.665 55.0144z" fill="url(#b)"/><path d="m121.89 233.995-8.62-11.382 210.499-175.3384 12.212 16.125z" fill="url(#c)"/><path d="m139.609 257.393-5.148-6.798 223.789-157.7909 7.184 9.4849z" fill="url(#d)"/><path d="m365.434 102.289-41.665-55.0144 54.031 2.3651z" fill="url(#e)"/><path d="m365.434 102.289-20.832-27.507 33.198-25.1423z" fill="url(#f)"/><path d="m146.014 286.871h95.9811v12.6917h-95.9811z" fill="url(#g)" transform="matrix(-.60373683 -.79718369 .79718369 -.60373683 5.479147 576.465568)"/><path d="m155.668 298.963-19.772-4.429 20.235-15.325z" fill="url(#h)"/><path d="m155.668 298.963-19.772-4.429 10.434-7.902z" fill="url(#i)"/><path d="m78.4119 198.265 19.7724 4.429-20.2353 15.325z" fill="url(#j)"/><path d="m78.4119 198.265 19.7724 4.429-10.4339 7.902z" fill="url(#k)"/><path d="m135.896 294.534h95.9811v12.6917h-95.9811z" fill="url(#l)" transform="matrix(-.60373683 -.79718369 .79718369 -.60373683 -16.856281 580.689099)"/><path d="m56.3873 322.907h45.2142v80.5131h-45.2142z" fill="url(#m)" transform="matrix(-.60373683 -.79718369 .79718369 -.60373683 -166.985804 562.808885)"/><path d="m58.6389 320.953 12.9633-9.818-5.9939-51.929-13.7537 10.416z" fill="url(#n)"/><ellipse cx="42.7386" cy="304.885" fill="url(#o)" rx="22.6071" ry="5.55263" transform="matrix(-.60373683 -.79718369 .79718369 -.60373683 -174.507883 523.025819)"/><path d="m84.0527 301.955 14.5442-11.015-6.904-51.489-13.5956 10.297z" fill="url(#p)"/></svg>