<svg width="249" height="346" viewBox="0 0 249 346" fill="none" xmlns="http://www.w3.org/2000/svg">
<path d="M170.972 224.744L210.791 270.739L159.48 285.72L170.972 224.744Z" fill="url(#paint0_linear_178_2372)"/>
<path d="M170.972 224.744L233.546 264.095L210.791 270.739L170.972 224.744Z" fill="url(#paint1_linear_178_2372)"/>
<path d="M170.972 224.744L159.48 285.72L136.502 292.429L170.972 224.744Z" fill="url(#paint2_linear_178_2372)"/>
<path d="M199.076 331.781L159.257 285.785L210.568 270.804L199.076 331.781Z" fill="url(#paint3_linear_178_2372)"/>
<path d="M199.076 331.781L136.502 292.429L159.257 285.785L199.076 331.781Z" fill="url(#paint4_linear_178_2372)"/>
<path d="M199.076 331.781L210.568 270.804L233.546 264.095L199.076 331.781Z" fill="url(#paint5_linear_178_2372)"/>
<path d="M73.794 16.6072L74.8852 65.5986L35.35 48.5467L73.794 16.6072Z" fill="url(#paint6_linear_178_2372)"/>
<path d="M73.794 16.6072L92.4182 73.1608L74.8852 65.5987L73.794 16.6072Z" fill="url(#paint7_linear_178_2372)"/>
<path d="M73.794 16.6071L35.35 48.5467L17.6451 40.9104L73.794 16.6071Z" fill="url(#paint8_linear_178_2372)"/>
<path d="M36.2693 97.4641L35.1781 48.4726L74.7133 65.5245L36.2693 97.4641Z" fill="url(#paint9_linear_178_2372)"/>
<path d="M36.2693 97.4641L17.6451 40.9104L35.1781 48.4726L36.2693 97.4641Z" fill="url(#paint10_linear_178_2372)"/>
<path d="M36.2693 97.4641L74.7133 65.5245L92.4182 73.1608L36.2693 97.4641Z" fill="url(#paint11_linear_178_2372)"/>
<defs>
<linearGradient id="paint0_linear_178_2372" x1="146.954" y1="234.939" x2="191.147" y2="219.765" gradientUnits="userSpaceOnUse">
<stop stop-color="#FF335F"/>
<stop offset="1" stop-color="#E4FA6B"/>
</linearGradient>
<linearGradient id="paint1_linear_178_2372" x1="173.773" y1="227.109" x2="214.376" y2="213.342" gradientUnits="userSpaceOnUse">
<stop stop-color="#FF335F"/>
<stop offset="1" stop-color="#E4FA6B"/>
</linearGradient>
<linearGradient id="paint2_linear_178_2372" x1="123.92" y1="241.664" x2="166.981" y2="226.937" gradientUnits="userSpaceOnUse">
<stop stop-color="#FF335F"/>
<stop offset="1" stop-color="#E4FA6B"/>
</linearGradient>
<linearGradient id="paint3_linear_178_2372" x1="223.095" y1="321.585" x2="178.901" y2="336.76" gradientUnits="userSpaceOnUse">
<stop stop-color="#FF335F"/>
<stop offset="1" stop-color="#E4FA6B"/>
</linearGradient>
<linearGradient id="paint4_linear_178_2372" x1="196.276" y1="329.416" x2="155.673" y2="343.183" gradientUnits="userSpaceOnUse">
<stop stop-color="#FF335F"/>
<stop offset="1" stop-color="#E4FA6B"/>
</linearGradient>
<linearGradient id="paint5_linear_178_2372" x1="246.128" y1="314.86" x2="203.067" y2="329.587" gradientUnits="userSpaceOnUse">
<stop stop-color="#FF335F"/>
<stop offset="1" stop-color="#E4FA6B"/>
</linearGradient>
<linearGradient id="paint6_linear_178_2372" x1="53.6533" y1="10.6005" x2="88.8709" y2="23.8777" gradientUnits="userSpaceOnUse">
<stop stop-color="#FF335F"/>
<stop offset="1" stop-color="#E4FA6B"/>
</linearGradient>
<linearGradient id="paint7_linear_178_2372" x1="74.3173" y1="19.5132" x2="106.584" y2="31.82" gradientUnits="userSpaceOnUse">
<stop stop-color="#FF335F"/>
<stop offset="1" stop-color="#E4FA6B"/>
</linearGradient>
<linearGradient id="paint8_linear_178_2372" x1="35.9057" y1="2.9458" x2="70.1908" y2="15.9191" gradientUnits="userSpaceOnUse">
<stop stop-color="#FF335F"/>
<stop offset="1" stop-color="#E4FA6B"/>
</linearGradient>
<linearGradient id="paint9_linear_178_2372" x1="56.41" y1="103.471" x2="21.1924" y2="90.1935" gradientUnits="userSpaceOnUse">
<stop stop-color="#FF335F"/>
<stop offset="1" stop-color="#E4FA6B"/>
</linearGradient>
<linearGradient id="paint10_linear_178_2372" x1="35.746" y1="94.5581" x2="3.47925" y2="82.2512" gradientUnits="userSpaceOnUse">
<stop stop-color="#FF335F"/>
<stop offset="1" stop-color="#E4FA6B"/>
</linearGradient>
<linearGradient id="paint11_linear_178_2372" x1="74.1576" y1="111.125" x2="39.8725" y2="98.1521" gradientUnits="userSpaceOnUse">
<stop stop-color="#FF335F"/>
<stop offset="1" stop-color="#E4FA6B"/>
</linearGradient>
</defs>
</svg>
