<svg width="65" height="28" viewBox="0 0 65 28" fill="none" xmlns="http://www.w3.org/2000/svg">
<path d="M15.9745 0.32666V18.2327H11.3092V11.134H4.66534V18.2301H0V0.32666H4.66534V6.947H11.3118V0.32666H15.9745Z" fill="white"/>
<path d="M37.2417 9.27841C37.2417 14.5945 34.0818 18.5568 28.29 18.5568C22.4982 18.5568 19.3357 14.5945 19.3357 9.27841C19.3357 3.96227 22.4956 0 28.2874 0C34.0792 0 37.2417 3.96227 37.2417 9.27841ZM32.4771 9.27841C32.4771 6.27011 31.0735 4.11125 28.29 4.11125C25.5065 4.11125 24.1003 6.24398 24.1003 9.27841C24.1003 12.2867 25.5039 14.443 28.2874 14.443C31.0709 14.443 32.4771 12.2867 32.4771 9.27841Z" fill="white"/>
<path d="M49.4552 0.32666H53.969V7.04632H57.0792L59.7373 0.32666H64.4261L60.8402 9.15291L64.6509 18.2301H59.9621L57.1027 11.2334H53.969V18.2301H49.4552V11.2334H46.3215L43.4622 18.2301H38.7733L42.584 9.15291L38.9981 0.32666H43.6869L46.345 7.04632H49.4552V0.32666Z" fill="white"/>
<path d="M4.03026 27.4682L2.93253 25.1577H2.6398L2.01253 25.8791V27.4682H0.182983V19.8704H2.01253V23.8222L3.68526 22.0345H5.68207L4.14526 23.7176L5.91207 27.4708H4.03026V27.4682Z" fill="white"/>
<path d="M12.4566 24.184V27.4667H10.6375V24.4872C10.6375 23.8599 10.3552 23.4836 9.78024 23.4836C9.16342 23.4836 8.81842 24.0063 8.81842 24.6022V27.4667H6.99933V22.0304H8.75569V22.5008H9.04842C9.38296 22.0931 9.8116 21.8945 10.4911 21.8945C11.8607 21.8971 12.4566 22.7517 12.4566 24.184Z" fill="white"/>
<path d="M15.9171 19.8689V21.3848H14.098V19.8689H15.9171ZM15.9171 22.0304V27.4667H14.098V22.0304H15.9171Z" fill="white"/>
<path d="M19.6598 23.5149V27.4667H17.8407V23.5149H17.1298V22.0304H17.8407V21.7795C17.8407 20.3263 18.8757 19.8663 20.1511 19.8663H20.9561V21.3508H20.1825C19.7748 21.3508 19.6598 21.6017 19.6598 21.8526V22.0304H20.9561V23.5149H19.6598Z" fill="white"/>
<path d="M27.4798 25.7104C27.2393 26.8917 26.3716 27.6027 24.8139 27.6027C23.0889 27.6027 21.9598 26.5363 21.9598 24.7486C21.9598 22.9713 23.068 21.8945 24.7721 21.8945C26.497 21.8945 27.5216 22.9399 27.5216 24.5708V24.989H23.758C23.8311 25.7313 24.1657 26.1181 24.8452 26.1181C25.2948 26.1181 25.5248 25.9927 25.6398 25.7104H27.4798ZM23.8311 23.9017H25.6607C25.5666 23.4313 25.2634 23.1908 24.7721 23.1908C24.2389 23.1908 23.9671 23.4417 23.8311 23.9017Z" fill="white"/>
<path d="M28.8911 27.4667V25.6476H30.8147V27.4667H28.8911Z" fill="white"/>
<path d="M40.9243 24.1004V27.4667H39.1052V24.4767C39.1052 23.8599 38.9484 23.4836 38.4152 23.4836C37.8402 23.4836 37.6102 23.9331 37.6102 24.5081V27.4667H35.7911V24.4767C35.7911 23.8599 35.6343 23.4836 35.1011 23.4836C34.5052 23.4836 34.2961 23.9958 34.2961 24.5917V27.4667H32.4771V22.0304H34.2334V22.5008H34.5261C34.7875 22.0931 35.258 21.8945 35.8539 21.8945C36.523 21.8945 36.9411 22.114 37.2234 22.5008H37.5161C37.7984 22.0931 38.3002 21.8945 38.9589 21.8945C40.297 21.8971 40.9243 22.7517 40.9243 24.1004Z" fill="white"/>
<path d="M47.7929 25.7104C47.5525 26.8917 46.6848 27.6027 45.127 27.6027C43.402 27.6027 42.2729 26.5363 42.2729 24.7486C42.2729 22.9713 43.3811 21.8945 45.0852 21.8945C46.8102 21.8945 47.8348 22.9399 47.8348 24.5708V24.989H44.0711C44.1443 25.7313 44.4789 26.1181 45.1584 26.1181C45.6079 26.1181 45.8379 25.9927 45.9529 25.7104H47.7929ZM44.1443 23.9017H45.9739C45.8798 23.4313 45.5766 23.1908 45.0852 23.1908C44.552 23.1908 44.2802 23.4417 44.1443 23.9017Z" fill="white"/>
<path d="M52.5706 22.4904H52.8634V19.8689H54.6825V27.4693H52.9261V27.0093H52.6334C52.3406 27.3753 51.9225 27.6053 51.2116 27.6053C49.7897 27.6053 48.9534 26.4134 48.9534 24.7512C48.9534 23.0889 49.8211 21.8971 51.2116 21.8971C51.8911 21.8971 52.2884 22.1271 52.5706 22.4904ZM52.9365 24.7486C52.9365 24.0167 52.602 23.379 51.8388 23.379C51.0756 23.379 50.7725 24.0167 50.7725 24.7486C50.7725 25.4804 51.0756 26.1181 51.8388 26.1181C52.602 26.1181 52.9365 25.4804 52.9365 24.7486Z" fill="white"/>
<path d="M58.2057 19.8689V21.3848H56.3866V19.8689H58.2057ZM58.2057 22.0304V27.4667H56.3866V22.0304H58.2057Z" fill="white"/>
<path d="M64.8443 24.0377V27.4667H63.182V27.0486H62.8893C62.5652 27.4145 62.1575 27.6027 61.457 27.6027C60.2548 27.6027 59.5543 26.7349 59.5543 25.7731C59.5543 24.9263 60.192 23.9645 61.8439 23.9645H63.0984V23.8704C63.0984 23.3581 62.8161 23.1804 62.3561 23.1804C61.8961 23.1804 61.6766 23.3581 61.6348 23.6508H59.8366C59.868 22.5949 60.8611 21.8945 62.2516 21.8945C63.7884 21.8971 64.8443 22.4407 64.8443 24.0377ZM63.0984 24.9995H62.2202C61.7184 24.9995 61.3734 25.219 61.3734 25.6267C61.3734 26.0449 61.6557 26.2645 62.147 26.2645C62.743 26.2645 63.0984 25.8567 63.0984 25.3236V24.9995Z" fill="white"/>
</svg>
