<svg width="464" height="765" viewBox="0 0 464 765" fill="none" xmlns="http://www.w3.org/2000/svg">
<path d="M233 90L237.318 293.505L255.578 91.8023L245.907 294.88L277.909 97.1895L254.354 297.615L299.748 106.102L262.567 301.68L320.855 118.444L270.456 307.03L341 134.078L277.935 313.607L359.962 152.833L284.922 321.339L377.532 174.505L291.34 330.14L393.519 198.856L297.118 339.915L407.748 225.619L302.194 350.557L420.061 254.5L306.512 361.948L430.326 285.184L310.025 373.965L438.428 317.333L312.693 386.475L444.28 350.597L314.489 399.341L447.817 384.61L315.392 412.423L449 419L315.392 425.577L447.817 453.39L314.489 438.659L444.28 487.403L312.693 451.525L438.428 520.667L310.025 464.035L430.326 552.816L306.512 476.052L420.061 583.5L302.194 487.443L407.748 612.381L297.118 498.085L393.519 639.144L291.34 507.86L377.532 663.495L284.922 516.661L359.962 685.167L277.935 524.393L341 703.922L270.456 530.97L320.855 719.556L262.567 536.32L299.748 731.898L254.354 540.385L277.909 740.811L245.907 543.12L255.578 746.198L237.318 544.495L233 748L228.682 544.495L210.422 746.198L220.093 543.12L188.091 740.811L211.646 540.385L166.252 731.898L203.433 536.32L145.145 719.556L195.544 530.97L125 703.922L188.065 524.393L106.038 685.167L181.078 516.661L88.4678 663.495L174.66 507.86L72.4807 639.144L168.882 498.085L58.2523 612.381L163.806 487.443L45.9385 583.5L159.488 476.052L35.6742 552.816L155.975 464.035L27.5718 520.667L153.307 451.525L21.7201 487.403L151.511 438.659L18.1833 453.39L150.608 425.577L17 419L150.608 412.423L18.1833 384.61L151.511 399.341L21.7201 350.597L153.307 386.475L27.5718 317.333L155.975 373.965L35.6742 285.184L159.488 361.948L45.9385 254.5L163.806 350.557L58.2523 225.619L168.882 339.915L72.4807 198.856L174.66 330.14L88.4678 174.505L181.078 321.339L106.038 152.833L188.065 313.607L125 134.078L195.544 307.03L145.145 118.444L203.433 301.68L166.252 106.102L211.646 297.615L188.091 97.1895L220.093 294.88L210.422 91.8023L228.682 293.505L233 90Z" fill="url(#paint0_linear_178_2319)"/>
<mask id="path-2-inside-1_178_2319" fill="white">
<path fill-rule="evenodd" clip-rule="evenodd" d="M362.001 23.6533H96.9985C96.7304 73.6028 59.7191 114.039 14 114.332V656.229C59.8857 656.523 97 697.253 97 747.453C97 747.636 96.9995 747.818 96.9985 748H362.001C362 747.818 362 747.636 362 747.453C362 697.071 399.384 656.227 445.5 656.227C447.348 656.227 449.182 656.293 451 656.422V114.138C449.182 114.268 447.348 114.333 445.5 114.333C399.551 114.333 362.271 73.7848 362.001 23.6533Z"/>
</mask>
<path d="M96.9985 23.6533V21.6533H95.0092L94.9986 23.6426L96.9985 23.6533ZM362.001 23.6533L364.001 23.6426L363.991 21.6533H362.001V23.6533ZM14 114.332L13.9872 112.332L12 112.344V114.332H14ZM14 656.229H12V658.216L13.9872 658.229L14 656.229ZM96.9985 748L94.9986 747.989L94.9878 750H96.9985V748ZM362.001 748V750H364.012L364.001 747.989L362.001 748ZM451 656.422L450.858 658.417L453 658.569V656.422H451ZM451 114.138H453V111.991L450.858 112.143L451 114.138ZM96.9985 25.6533H362.001V21.6533H96.9985V25.6533ZM14.0128 116.332C60.9874 116.031 98.7254 74.5416 98.9985 23.6641L94.9986 23.6426C94.7355 72.664 58.4509 112.047 13.9872 112.332L14.0128 116.332ZM16 656.229V114.332H12V656.229H16ZM99 747.453C99 696.321 61.1588 654.531 14.0128 654.229L13.9872 658.229C58.6126 658.515 95 698.184 95 747.453H99ZM98.9985 748.011C98.9995 747.825 99 747.639 99 747.453H95C95 747.632 94.9995 747.811 94.9986 747.989L98.9985 748.011ZM362.001 746H96.9985V750H362.001V746ZM364.001 747.989C364 747.811 364 747.632 364 747.453H360C360 747.639 360 747.825 360.001 748.011L364.001 747.989ZM364 747.453C364 698.005 400.652 658.227 445.5 658.227V654.227C398.117 654.227 360 696.136 360 747.453H364ZM445.5 658.227C447.301 658.227 449.087 658.291 450.858 658.417L451.142 654.427C449.277 654.295 447.395 654.227 445.5 654.227V658.227ZM449 114.138V656.422H453V114.138H449ZM445.5 116.333C447.395 116.333 449.277 116.266 451.142 116.133L450.858 112.143C449.087 112.269 447.301 112.333 445.5 112.333V116.333ZM360.001 23.6641C360.276 74.7263 398.288 116.333 445.5 116.333V112.333C400.814 112.333 364.266 72.8432 364.001 23.6426L360.001 23.6641Z" fill="url(#paint1_linear_178_2319)" mask="url(#path-2-inside-1_178_2319)"/>
<mask id="path-4-inside-2_178_2319" fill="white">
<path fill-rule="evenodd" clip-rule="evenodd" d="M463.523 100.076C460.081 100.575 456.568 100.832 453 100.832C409.37 100.832 374 62.3844 374 14.9572C374 10.8996 374.259 6.90771 374.76 3H83.2202C83.7341 6.90525 84 10.8975 84 14.9572C84 61.1837 49.5259 98.6576 7 98.6576C5.14278 98.6576 3.30092 98.5861 1.47662 98.4456V667.168H1.5C46.5112 667.168 83 706.832 83 755.76C83 758.88 82.8516 761.963 82.5621 765H375.187C374.407 760.236 374 755.332 374 750.325C374 704.399 408.25 667.168 450.5 667.168C454.94 667.168 459.291 667.579 463.523 668.368V100.076Z"/>
</mask>
<path d="M463.523 100.076H464.523V98.9214L463.38 99.0868L463.523 100.076ZM374.76 3L375.752 3.12712L375.896 2H374.76V3ZM83.2202 3V2H82.08L82.2288 3.13046L83.2202 3ZM1.47662 98.4456L1.55344 97.4485L0.476624 97.3656V98.4456H1.47662ZM1.47662 667.168H0.476624V668.168H1.47662V667.168ZM82.5621 765L81.5666 764.905L81.4622 766H82.5621V765ZM375.187 765V766H376.365L376.174 764.838L375.187 765ZM463.523 668.368L463.34 669.351L464.523 669.572V668.368H463.523ZM453 99.8317C451.21 99.8317 449.434 99.7661 447.675 99.6371L447.529 101.632C449.337 101.764 451.161 101.832 453 101.832V99.8317ZM437.153 98.0791C433.669 97.2965 430.268 96.2609 426.97 94.9905L426.251 96.8569C429.64 98.1619 433.134 99.2262 436.715 100.03L437.153 98.0791ZM417.338 90.4607C414.244 88.7268 411.27 86.7739 408.432 84.6207L407.223 86.2138C410.133 88.4219 413.184 90.4256 416.36 92.2054L417.338 90.4607ZM400.395 77.6235C397.888 75.1301 395.531 72.4607 393.34 69.633L391.759 70.8579C394.002 73.753 396.416 76.487 398.985 79.0416L400.395 77.6235ZM387.351 60.8096C385.555 57.7703 383.931 54.5979 382.496 51.309L380.663 52.1087C382.131 55.4724 383.791 58.7176 385.63 61.8274L387.351 60.8096ZM378.827 41.291C377.816 37.9171 376.994 34.4502 376.375 30.9048L374.405 31.249C375.038 34.8722 375.878 38.4159 376.911 41.8651L378.827 41.291ZM375.152 20.3C375.051 18.5333 375 16.7518 375 14.9572H373C373 16.7898 373.052 18.6093 373.155 20.4139L375.152 20.3ZM375 14.9572C375 13.9647 375.016 12.9761 375.047 11.9919L373.048 11.9288C373.016 12.9341 373 13.9436 373 14.9572H375ZM375.422 6.0738C375.516 5.08642 375.626 4.10409 375.752 3.12712L373.768 2.87288C373.64 3.87112 373.528 4.87477 373.431 5.88352L375.422 6.0738ZM374.76 2H369.153V4H374.76V2ZM357.94 2H346.727V4H357.94V2ZM335.514 2H324.301V4H335.514V2ZM313.088 2H301.875V4H313.088V2ZM290.662 2H279.449V4H290.662V2ZM268.236 2H257.023V4H268.236V2ZM245.81 2H234.596V4H245.81V2ZM223.383 2H212.17V4H223.383V2ZM200.957 2H189.744V4H200.957V2ZM178.531 2H167.318V4H178.531V2ZM156.105 2H144.892V4H156.105V2ZM133.679 2H122.466V4H133.679V2ZM111.253 2H100.04V4H111.253V2ZM88.8268 2H83.2202V4H88.8268V2ZM82.2288 3.13046C82.3572 4.10679 82.47 5.08865 82.5669 6.07572L84.5573 5.88043C84.4583 4.87142 84.343 3.86769 84.2117 2.86954L82.2288 3.13046ZM82.9521 11.9923C82.9839 12.9763 83 13.9647 83 14.9572H85C85 13.9431 84.9836 12.9331 84.951 11.9276L82.9521 11.9923ZM83 14.9572C83 16.7058 82.9501 18.4417 82.8519 20.1632L84.8486 20.2772C84.9491 18.5178 85 16.7439 85 14.9572H83ZM81.6605 30.4967C81.0569 33.9513 80.2559 37.3295 79.2708 40.617L81.1866 41.1911C82.1943 37.8283 83.0135 34.3733 83.6307 30.8409L81.6605 30.4967ZM75.6955 50.3786C74.2974 53.5833 72.7155 56.6744 70.9649 59.6359L72.6865 60.6536C74.4789 57.6217 76.0979 54.4577 77.5286 51.1783L75.6955 50.3786ZM65.13 68.2332C62.9951 70.9885 60.6981 73.5896 58.2552 76.0191L59.6655 77.4372C62.17 74.9464 64.524 72.2808 66.711 69.4582L65.13 68.2332ZM50.424 82.8368C47.6596 84.9348 44.7616 86.8376 41.7469 88.5271L42.7247 90.2718C45.8212 88.5365 48.7964 86.5829 51.6331 84.43L50.424 82.8368ZM32.3619 92.9407C29.1481 94.1785 25.8352 95.1875 22.4398 95.95L22.878 97.9014C26.3702 97.1171 29.7768 96.0795 33.0807 94.8071L32.3619 92.9407ZM12.1883 97.468C10.474 97.5937 8.74394 97.6576 7 97.6576V99.6576C8.79282 99.6576 10.5717 99.5919 12.3346 99.4626L12.1883 97.468ZM7 97.6576C6.54471 97.6576 6.09037 97.6533 5.63701 97.6446L5.59875 99.6442C6.06486 99.6531 6.53196 99.6576 7 99.6576V97.6576ZM2.91323 97.5401C2.45889 97.5139 2.00562 97.4834 1.55344 97.4485L1.3998 99.4426C1.86481 99.4785 2.33092 99.5099 2.79812 99.5368L2.91323 97.5401ZM0.476624 98.4456V103.914H2.47662V98.4456H0.476624ZM0.476624 114.851V125.788H2.47662V114.851H0.476624ZM0.476624 136.725V147.662H2.47662V136.725H0.476624ZM0.476624 158.599V169.536H2.47662V158.599H0.476624ZM0.476624 180.473V191.41H2.47662V180.473H0.476624ZM0.476624 202.347V213.284H2.47662V202.347H0.476624ZM0.476624 224.221V235.158H2.47662V224.221H0.476624ZM0.476624 246.095V257.032H2.47662V246.095H0.476624ZM0.476624 267.969V278.906H2.47662V267.969H0.476624ZM0.476624 289.843V300.78H2.47662V289.843H0.476624ZM0.476624 311.717V322.654H2.47662V311.717H0.476624ZM0.476624 333.591V344.528H2.47662V333.591H0.476624ZM0.476624 355.465V366.402H2.47662V355.465H0.476624ZM0.476624 377.339V388.275H2.47662V377.339H0.476624ZM0.476624 399.212V410.149H2.47662V399.212H0.476624ZM0.476624 421.086V432.023H2.47662V421.086H0.476624ZM0.476624 442.96V453.897H2.47662V442.96H0.476624ZM0.476624 464.834V475.771H2.47662V464.834H0.476624ZM0.476624 486.708V497.645H2.47662V486.708H0.476624ZM0.476624 508.582V519.519H2.47662V508.582H0.476624ZM0.476624 530.456V541.393H2.47662V530.456H0.476624ZM0.476624 552.33V563.267H2.47662V552.33H0.476624ZM0.476624 574.204V585.141H2.47662V574.204H0.476624ZM0.476624 596.078V607.015H2.47662V596.078H0.476624ZM0.476624 617.952V628.889H2.47662V617.952H0.476624ZM0.476624 639.826V650.763H2.47662V639.826H0.476624ZM0.476624 661.7V667.168H2.47662V661.7H0.476624ZM1.47662 668.168H1.48247V666.168H1.47662V668.168ZM1.49416 668.168H1.5V666.168H1.49416V668.168ZM1.5 668.168C3.34729 668.168 5.17989 668.236 6.99583 668.369L7.14214 666.374C5.27757 666.238 3.39618 666.168 1.5 666.168V668.168ZM17.8549 669.977C21.4516 670.785 24.9608 671.854 28.3651 673.165L29.0839 671.298C25.5896 669.953 21.9866 668.855 18.2932 668.026L17.8549 669.977ZM38.3062 677.84C41.4994 679.629 44.569 681.645 47.4971 683.867L48.7062 682.274C45.7058 679.997 42.559 677.93 39.284 676.095L38.3062 677.84ZM55.7919 691.088C58.3794 693.662 60.8123 696.417 63.0734 699.335L64.6544 698.11C62.3411 695.124 59.8513 692.305 57.2022 689.67L55.7919 691.088ZM69.2534 708.441C71.1076 711.577 72.783 714.851 74.2637 718.245L76.0969 717.446C74.5835 713.977 72.8709 710.63 70.9751 707.423L69.2534 708.441ZM78.0504 728.584C79.0937 732.066 79.9421 735.644 80.5814 739.303L82.5515 738.958C81.8987 735.222 81.0322 731.567 79.9662 728.01L78.0504 728.584ZM81.8431 750.247C81.9472 752.07 82 753.908 82 755.76H84C84 753.87 83.9461 751.994 83.8399 750.133L81.8431 750.247ZM82 755.76C82 756.526 81.991 757.289 81.973 758.05L83.9725 758.097C83.9908 757.32 84 756.542 84 755.76H82ZM81.7565 762.624C81.7022 763.387 81.6388 764.147 81.5666 764.905L83.5576 765.095C83.6313 764.321 83.696 763.545 83.7515 762.766L81.7565 762.624ZM82.5621 766H88.1895V764H82.5621V766ZM99.4443 766H110.699V764H99.4443V766ZM121.954 766H133.209V764H121.954V766ZM144.464 766H155.718V764H144.464V766ZM166.973 766H178.228V764H166.973V766ZM189.483 766H200.738V764H189.483V766ZM211.993 766H223.247V764H211.993V766ZM234.502 766H245.757V764H234.502V766ZM257.012 766H268.267V764H257.012V766ZM279.521 766H290.776V764H279.521V766ZM302.031 766H313.286V764H302.031V766ZM324.541 766H335.796V764H324.541V766ZM347.05 766H358.305V764H347.05V766ZM369.56 766H375.187V764H369.56V766ZM376.174 764.838C375.979 763.645 375.807 762.442 375.659 761.232L373.674 761.474C373.825 762.712 374.001 763.941 374.201 765.162L376.174 764.838ZM375.073 753.969C375.024 752.761 375 751.546 375 750.325H373C373 751.573 373.025 752.814 373.075 754.049L375.073 753.969ZM375 750.325C375 748.588 375.05 746.863 375.147 745.153L373.15 745.039C373.051 746.787 373 748.55 373 750.325H375ZM376.331 734.888C376.93 731.456 377.726 728.1 378.705 724.834L376.789 724.26C375.788 727.601 374.974 731.034 374.361 734.543L376.331 734.888ZM382.257 715.136C383.645 711.953 385.217 708.882 386.956 705.94L385.234 704.922C383.454 707.935 381.845 711.078 380.423 714.337L382.257 715.136ZM392.753 697.399C394.873 694.662 397.155 692.078 399.582 689.664L398.172 688.246C395.683 690.721 393.345 693.37 391.172 696.174L392.753 697.399ZM407.362 682.891C410.108 680.807 412.987 678.917 415.982 677.239L415.004 675.494C411.927 677.218 408.971 679.159 406.153 681.298L407.362 682.891ZM425.305 672.854C428.498 671.624 431.789 670.622 435.162 669.865L434.724 667.913C431.254 668.692 427.869 669.723 424.586 670.988L425.305 672.854ZM445.346 668.357C447.049 668.232 448.768 668.168 450.5 668.168V666.168C448.719 666.168 446.951 666.233 445.199 666.362L445.346 668.357ZM450.5 668.168C451.581 668.168 452.657 668.193 453.727 668.242L453.819 666.244C452.718 666.194 451.612 666.168 450.5 666.168V668.168ZM460.154 668.834C461.223 668.982 462.285 669.155 463.34 669.351L463.707 667.385C462.622 667.183 461.529 667.005 460.429 666.853L460.154 668.834ZM464.523 668.368V662.904H462.523V668.368H464.523ZM464.523 651.975V641.047H462.523V651.975H464.523ZM464.523 630.118V619.189H462.523V630.118H464.523ZM464.523 608.261V597.332H462.523V608.261H464.523ZM464.523 586.403V575.475H462.523V586.403H464.523ZM464.523 564.546V553.617H462.523V564.546H464.523ZM464.523 542.688V531.76H462.523V542.688H464.523ZM464.523 520.831V509.902H462.523V520.831H464.523ZM464.523 498.974V488.045H462.523V498.974H464.523ZM464.523 477.116V466.188H462.523V477.116H464.523ZM464.523 455.259V444.33H462.523V455.259H464.523ZM464.523 433.402V422.473H462.523V433.402H464.523ZM464.523 411.544V400.615H462.523V411.544H464.523ZM464.523 389.687V378.758H462.523V389.687H464.523ZM464.523 367.829V356.901H462.523V367.829H464.523ZM464.523 345.972V335.043H462.523V345.972H464.523ZM464.523 324.115V313.186H462.523V324.115H464.523ZM464.523 302.257V291.329H462.523V302.257H464.523ZM464.523 280.4V269.471H462.523V280.4H464.523ZM464.523 258.543V247.614H462.523V258.543H464.523ZM464.523 236.685V225.757H462.523V236.685H464.523ZM464.523 214.828V203.899H462.523V214.828H464.523ZM464.523 192.971V182.042H462.523V192.971H464.523ZM464.523 171.113V160.184H462.523V171.113H464.523ZM464.523 149.256V138.327H462.523V149.256H464.523ZM464.523 127.398V116.47H462.523V127.398H464.523ZM464.523 105.541V100.076H462.523V105.541H464.523ZM463.38 99.0868C462.523 99.2107 461.662 99.3196 460.797 99.413L461.012 101.401C461.901 101.305 462.786 101.194 463.667 101.066L463.38 99.0868ZM455.604 99.7853C454.739 99.8162 453.871 99.8317 453 99.8317V101.832C453.895 101.832 454.787 101.816 455.675 101.784L455.604 99.7853ZM463.523 100.076H465.523V97.7663L463.237 98.0971L463.523 100.076ZM374.76 3L376.743 3.25423L377.032 1H374.76V3ZM83.2202 3V1H80.9398L81.2373 3.26093L83.2202 3ZM1.47662 98.4456L1.63026 96.4515L-0.523376 96.2856V98.4456H1.47662ZM1.47662 667.168H-0.523376V669.168H1.47662V667.168ZM82.5621 765L80.5711 764.81L80.3623 767H82.5621V765ZM375.187 765V767H377.542L377.161 764.677L375.187 765ZM463.523 668.368L463.157 670.335L465.523 670.776V668.368H463.523ZM453 98.8317C451.235 98.8317 449.483 98.767 447.748 98.6397L447.456 102.629C449.288 102.763 451.137 102.832 453 102.832V98.8317ZM437.373 97.1034C433.936 96.3317 430.583 95.3104 427.329 94.0573L425.892 97.7901C429.325 99.1125 432.866 100.191 436.496 101.006L437.373 97.1034ZM417.827 89.5884C414.774 87.8773 411.838 85.9499 409.037 83.8241L406.619 87.0104C409.564 89.2459 412.654 91.275 415.871 93.0778L417.827 89.5884ZM401.1 76.9145C398.624 74.4517 396.295 71.8146 394.13 69.0205L390.968 71.4704C393.237 74.3991 395.68 77.1654 398.28 79.7507L401.1 76.9145ZM388.212 60.3007C386.436 57.2967 384.832 54.1607 383.413 50.9091L379.747 52.5086C381.23 55.9096 382.91 59.1912 384.769 62.3362L388.212 60.3007ZM379.785 41.0039C378.785 37.6678 377.972 34.2392 377.36 30.7327L373.419 31.4211C374.059 35.0832 374.909 38.6653 375.953 42.1522L379.785 41.0039ZM376.15 20.243C376.051 18.4952 376 16.7328 376 14.9572H372C372 16.8089 372.053 18.6473 372.157 20.4709L376.15 20.243ZM376 14.9572C376 13.9752 376.016 12.9972 376.046 12.0234L372.048 11.8973C372.016 12.9131 372 13.9331 372 14.9572H376ZM376.418 6.16895C376.511 5.19224 376.62 4.22058 376.743 3.25423L372.776 2.74577C372.647 3.75464 372.533 4.76894 372.436 5.78837L376.418 6.16895ZM374.76 1H369.153V5H374.76V1ZM357.94 1H346.727V5H357.94V1ZM335.514 1H324.301V5H335.514V1ZM313.088 1H301.875V5H313.088V1ZM290.662 1H279.449V5H290.662V1ZM268.236 1H257.023V5H268.236V1ZM245.81 1H234.596V5H245.81V1ZM223.383 1H212.17V5H223.383V1ZM200.957 1H189.744V5H200.957V1ZM178.531 1H167.318V5H178.531V1ZM156.105 1H144.892V5H156.105V1ZM133.679 1H122.466V5H133.679V1ZM111.253 1H100.04V5H111.253V1ZM88.8268 1H83.2202V5H88.8268V1ZM81.2373 3.26093C81.3644 4.22634 81.4759 5.19726 81.5717 6.17337L85.5526 5.78278C85.4525 4.76281 85.3359 3.74814 85.2031 2.73907L81.2373 3.26093ZM81.9526 12.0246C81.9841 12.9978 82 13.9755 82 14.9572H86C86 13.9323 85.9834 12.9115 85.9505 11.8952L81.9526 12.0246ZM82 14.9572C82 16.6868 81.9507 18.4037 81.8535 20.1062L85.847 20.3342C85.9485 18.5558 86 16.7629 86 14.9572H82ZM80.6754 30.3246C80.0787 33.7403 79.2867 37.0801 78.3128 40.33L82.1445 41.4782C83.1635 38.0777 83.9918 34.5843 84.6157 31.013L80.6754 30.3246ZM74.7789 49.9787C73.3971 53.1461 71.8339 56.2008 70.104 59.127L73.5474 61.1625C75.3605 58.0953 76.9982 54.895 78.4452 51.5782L74.7789 49.9787ZM64.3395 67.6207C62.2307 70.3424 59.9622 72.9111 57.5501 75.31L60.3707 78.1462C62.906 75.6249 65.2884 72.9269 67.5015 70.0707L64.3395 67.6207ZM49.8194 82.0403C47.0912 84.1108 44.2318 85.9882 41.2581 87.6548L43.2136 91.1442C46.351 89.3859 49.3648 87.4069 52.2376 85.2265L49.8194 82.0403ZM32.0025 92.0075C28.8337 93.2279 25.5677 94.2227 22.2207 94.9743L23.0971 98.8771C26.6377 98.082 30.0912 97.03 33.4401 95.7402L32.0025 92.0075ZM12.1152 96.4706C10.4252 96.5946 8.7195 96.6576 7 96.6576V100.658C8.81726 100.658 10.6205 100.591 12.4078 100.46L12.1152 96.4706ZM7 96.6576C6.55109 96.6576 6.10312 96.6533 5.65614 96.6448L5.57962 100.644C6.05211 100.653 6.52558 100.658 7 100.658V96.6576ZM2.97079 96.5418C2.52288 96.5159 2.07602 96.4858 1.63026 96.4515L1.32299 100.44C1.7944 100.476 2.26694 100.508 2.74057 100.535L2.97079 96.5418ZM-0.523376 98.4456V103.914H3.47662V98.4456H-0.523376ZM-0.523376 114.851V125.788H3.47662V114.851H-0.523376ZM-0.523376 136.725V147.662H3.47662V136.725H-0.523376ZM-0.523376 158.599V169.536H3.47662V158.599H-0.523376ZM-0.523376 180.473V191.41H3.47662V180.473H-0.523376ZM-0.523376 202.347V213.284H3.47662V202.347H-0.523376ZM-0.523376 224.221V235.158H3.47662V224.221H-0.523376ZM-0.523376 246.095V257.032H3.47662V246.095H-0.523376ZM-0.523376 267.969V278.906H3.47662V267.969H-0.523376ZM-0.523376 289.843V300.78H3.47662V289.843H-0.523376ZM-0.523376 311.717V322.654H3.47662V311.717H-0.523376ZM-0.523376 333.591V344.528H3.47662V333.591H-0.523376ZM-0.523376 355.465V366.402H3.47662V355.465H-0.523376ZM-0.523376 377.339V388.275H3.47662V377.339H-0.523376ZM-0.523376 399.212V410.149H3.47662V399.212H-0.523376ZM-0.523376 421.086V432.023H3.47662V421.086H-0.523376ZM-0.523376 442.96V453.897H3.47662V442.96H-0.523376ZM-0.523376 464.834V475.771H3.47662V464.834H-0.523376ZM-0.523376 486.708V497.645H3.47662V486.708H-0.523376ZM-0.523376 508.582V519.519H3.47662V508.582H-0.523376ZM-0.523376 530.456V541.393H3.47662V530.456H-0.523376ZM-0.523376 552.33V563.267H3.47662V552.33H-0.523376ZM-0.523376 574.204V585.141H3.47662V574.204H-0.523376ZM-0.523376 596.078V607.015H3.47662V596.078H-0.523376ZM-0.523376 617.952V628.889H3.47662V617.952H-0.523376ZM-0.523376 639.826V650.763H3.47662V639.826H-0.523376ZM-0.523376 661.7V667.168H3.47662V661.7H-0.523376ZM1.47662 669.168H1.48247V665.168H1.47662V669.168ZM1.49416 669.168H1.5V665.168H1.49416V669.168ZM1.5 669.168C3.32285 669.168 5.13105 669.235 6.92267 669.366L7.2153 665.377C5.32642 665.239 3.42062 665.168 1.5 665.168V669.168ZM17.6358 670.953C21.1841 671.75 24.6465 672.804 28.0057 674.098L29.4433 670.365C25.904 669.002 22.2541 667.89 18.5123 667.05L17.6358 670.953ZM37.8173 678.712C40.9696 680.479 44.0006 682.469 46.8925 684.664L49.3107 681.477C46.2742 679.173 43.0888 677.081 39.7728 675.223L37.8173 678.712ZM55.0867 691.797C57.6434 694.34 60.0478 697.063 62.2829 699.947L65.4449 697.497C63.1055 694.478 60.5872 691.626 57.9073 688.961L55.0867 691.797ZM68.3925 708.95C70.2259 712.051 71.8827 715.288 73.3472 718.645L77.0134 717.046C75.4838 713.54 73.7526 710.156 71.8359 706.914L68.3925 708.95ZM77.0924 728.871C78.1245 732.315 78.9638 735.855 79.5963 739.475L83.5366 738.786C82.877 735.011 82.0014 731.318 80.9241 727.723L77.0924 728.871ZM80.8447 750.304C80.9477 752.108 81 753.927 81 755.76H85C85 753.851 84.9456 751.956 84.8382 750.076L80.8447 750.304ZM81 755.76C81 756.518 80.9911 757.273 80.9733 758.026L84.9722 758.121C84.9907 757.336 85 756.549 85 755.76H81ZM80.7591 762.553C80.7053 763.308 80.6426 764.06 80.5711 764.81L84.553 765.19C84.6275 764.408 84.6929 763.624 84.749 762.837L80.7591 762.553ZM82.5621 767H88.1895V763H82.5621V767ZM99.4443 767H110.699V763H99.4443V767ZM121.954 767H133.209V763H121.954V767ZM144.464 767H155.718V763H144.464V767ZM166.973 767H178.228V763H166.973V767ZM189.483 767H200.738V763H189.483V767ZM211.993 767H223.247V763H211.993V767ZM234.502 767H245.757V763H234.502V767ZM257.012 767H268.267V763H257.012V767ZM279.521 767H290.776V763H279.521V767ZM302.031 767H313.286V763H302.031V767ZM324.541 767H335.796V763H324.541V767ZM347.05 767H358.305V763H347.05V767ZM369.56 767H375.187V763H369.56V767ZM377.161 764.677C376.968 763.497 376.798 762.308 376.652 761.111L372.681 761.594C372.834 762.846 373.012 764.089 373.214 765.323L377.161 764.677ZM376.072 753.929C376.024 752.734 376 751.533 376 750.325H372C372 751.586 372.025 752.841 372.075 754.089L376.072 753.929ZM376 750.325C376 748.607 376.049 746.901 376.146 745.21L372.152 744.982C372.051 746.749 372 748.531 372 750.325H376ZM377.316 735.06C377.909 731.667 378.695 728.349 379.663 725.121L375.831 723.973C374.818 727.352 373.995 730.823 373.375 734.371L377.316 735.06ZM383.173 715.536C384.546 712.39 386.099 709.356 387.817 706.449L384.374 704.413C382.572 707.461 380.945 710.641 379.507 713.937L383.173 715.536ZM393.543 698.012C395.638 695.308 397.891 692.756 400.287 690.373L397.467 687.537C394.947 690.043 392.58 692.723 390.381 695.562L393.543 698.012ZM407.966 683.688C410.676 681.631 413.517 679.766 416.471 678.111L414.515 674.622C411.398 676.369 408.403 678.335 405.548 680.502L407.966 683.688ZM425.664 673.787C428.812 672.575 432.056 671.587 435.381 670.84L434.505 666.938C430.986 667.728 427.555 668.773 424.227 670.055L425.664 673.787ZM445.419 669.354C447.098 669.231 448.792 669.168 450.5 669.168V665.168C448.694 665.168 446.902 665.234 445.126 665.365L445.419 669.354ZM450.5 669.168C451.566 669.168 452.627 669.193 453.682 669.241L453.865 665.245C452.749 665.194 451.627 665.168 450.5 665.168V669.168ZM460.017 669.824C461.07 669.97 462.117 670.141 463.157 670.335L463.89 666.402C462.79 666.197 461.682 666.017 460.567 665.862L460.017 669.824ZM465.523 668.368V662.904H461.523V668.368H465.523ZM465.523 651.975V641.047H461.523V651.975H465.523ZM465.523 630.118V619.189H461.523V630.118H465.523ZM465.523 608.261V597.332H461.523V608.261H465.523ZM465.523 586.403V575.475H461.523V586.403H465.523ZM465.523 564.546V553.617H461.523V564.546H465.523ZM465.523 542.688V531.76H461.523V542.688H465.523ZM465.523 520.831V509.902H461.523V520.831H465.523ZM465.523 498.974V488.045H461.523V498.974H465.523ZM465.523 477.116V466.188H461.523V477.116H465.523ZM465.523 455.259V444.33H461.523V455.259H465.523ZM465.523 433.402V422.473H461.523V433.402H465.523ZM465.523 411.544V400.615H461.523V411.544H465.523ZM465.523 389.687V378.758H461.523V389.687H465.523ZM465.523 367.829V356.901H461.523V367.829H465.523ZM465.523 345.972V335.043H461.523V345.972H465.523ZM465.523 324.115V313.186H461.523V324.115H465.523ZM465.523 302.257V291.329H461.523V302.257H465.523ZM465.523 280.4V269.471H461.523V280.4H465.523ZM465.523 258.543V247.614H461.523V258.543H465.523ZM465.523 236.685V225.757H461.523V236.685H465.523ZM465.523 214.828V203.899H461.523V214.828H465.523ZM465.523 192.971V182.042H461.523V192.971H465.523ZM465.523 171.113V160.184H461.523V171.113H465.523ZM465.523 149.256V138.327H461.523V149.256H465.523ZM465.523 127.398V116.47H461.523V127.398H465.523ZM465.523 105.541V100.076H461.523V105.541H465.523ZM463.237 98.0971C462.392 98.2193 461.543 98.3266 460.69 98.4188L461.119 102.396C462.02 102.298 462.917 102.185 463.81 102.056L463.237 98.0971ZM455.568 98.7859C454.716 98.8164 453.859 98.8317 453 98.8317V102.832C453.907 102.832 454.811 102.816 455.711 102.783L455.568 98.7859Z" fill="url(#paint2_linear_178_2319)" mask="url(#path-4-inside-2_178_2319)"/>
<circle cx="433" cy="31" r="31" fill="url(#paint3_radial_178_2319)"/>
<circle cx="31" cy="31" r="31" fill="url(#paint4_radial_178_2319)"/>
<circle cx="433" cy="730" r="31" fill="url(#paint5_radial_178_2319)"/>
<circle cx="31" cy="730" r="31" fill="url(#paint6_radial_178_2319)"/>
<defs>
<linearGradient id="paint0_linear_178_2319" x1="233" y1="90" x2="233" y2="748" gradientUnits="userSpaceOnUse">
<stop stop-color="#E4FA6B"/>
<stop offset="1" stop-color="#FF335F"/>
</linearGradient>
<linearGradient id="paint1_linear_178_2319" x1="14" y1="81.5573" x2="488.518" y2="708.637" gradientUnits="userSpaceOnUse">
<stop stop-color="#E4FA6B"/>
<stop offset="1" stop-color="#FF335F"/>
</linearGradient>
<linearGradient id="paint2_linear_178_2319" x1="1.47663" y1="63.914" x2="499.97" y2="726.017" gradientUnits="userSpaceOnUse">
<stop stop-color="#E4FA6B"/>
<stop offset="1" stop-color="#FF335F"/>
</linearGradient>
<radialGradient id="paint3_radial_178_2319" cx="0" cy="0" r="1" gradientUnits="userSpaceOnUse" gradientTransform="translate(451 23) rotate(114.775) scale(42.9535)">
<stop stop-color="#E4FA6B"/>
<stop offset="0.5625" stop-color="#FF335F"/>
<stop offset="1" stop-color="#9D0FC0"/>
</radialGradient>
<radialGradient id="paint4_radial_178_2319" cx="0" cy="0" r="1" gradientUnits="userSpaceOnUse" gradientTransform="translate(49 23) rotate(114.775) scale(42.9535)">
<stop stop-color="#E4FA6B"/>
<stop offset="0.5625" stop-color="#FF335F"/>
<stop offset="1" stop-color="#9D0FC0"/>
</radialGradient>
<radialGradient id="paint5_radial_178_2319" cx="0" cy="0" r="1" gradientUnits="userSpaceOnUse" gradientTransform="translate(451 722) rotate(114.775) scale(42.9535)">
<stop stop-color="#E4FA6B"/>
<stop offset="0.5625" stop-color="#FF335F"/>
<stop offset="1" stop-color="#9D0FC0"/>
</radialGradient>
<radialGradient id="paint6_radial_178_2319" cx="0" cy="0" r="1" gradientUnits="userSpaceOnUse" gradientTransform="translate(49 722) rotate(114.775) scale(42.9535)">
<stop stop-color="#E4FA6B"/>
<stop offset="0.5625" stop-color="#FF335F"/>
<stop offset="1" stop-color="#9D0FC0"/>
</radialGradient>
</defs>
</svg>
