<svg width="330" height="440" viewBox="0 0 330 440" fill="none" xmlns="http://www.w3.org/2000/svg">
<rect y="56.0352" width="246.126" height="394.098" rx="16" transform="rotate(-13.1133 0 56.0352)" fill="url(#paint0_linear_178_2425)"/>
<path d="M124.123 45.3525L151.324 152.731L135.191 43.7811L155.619 152.499L146.584 44.1375L160.015 153.003L158.175 46.4177L164.462 154.238L169.838 50.5967L168.913 156.191L181.446 56.6288L173.317 158.84L192.87 64.4478L177.628 162.156L203.987 73.9682L181.798 166.103L214.673 85.0855L185.781 170.638L224.812 97.678L189.533 175.71L234.294 111.608L193.014 181.264L243.013 126.722L196.185 187.24L250.875 142.855L199.011 193.572L257.793 159.831L201.462 200.191L263.691 177.463L203.511 207.023L268.506 195.558L205.135 213.995L272.183 213.918L206.317 221.03L274.684 232.341L207.043 228.05L275.98 250.626L207.306 234.979L276.057 268.573L207.102 241.741L274.915 285.985L206.434 248.262L272.566 302.67L205.31 254.471L269.035 318.447L203.741 260.298L264.362 333.143L201.745 265.682L258.597 346.595L199.343 270.561L251.804 358.658L196.562 274.884L244.057 369.199L193.433 278.603L235.442 378.102L189.989 281.676L226.051 385.27L186.269 284.071L215.989 390.624L182.313 285.761L205.366 394.106L178.165 286.727L194.297 395.677L173.869 286.96L182.905 395.321L169.474 286.455L171.314 393.041L165.026 285.22L159.65 388.862L160.576 283.267L148.043 382.83L156.171 280.618L136.618 375.011L151.86 277.302L125.502 365.49L147.691 273.355L114.816 354.373L143.708 268.821L104.676 341.78L139.956 263.749L95.195 327.851L136.475 258.194L86.4758 312.736L133.304 252.218L78.614 296.603L130.477 245.886L71.696 279.627L128.026 239.268L65.7974 261.996L125.977 232.435L60.9829 243.901L124.353 225.463L57.3052 225.541L123.172 218.429L54.8046 207.118L122.446 211.408L53.5086 188.832L122.183 204.479L53.4313 170.886L122.387 197.717L54.5735 153.474L123.054 191.196L56.9228 136.788L124.179 184.988L60.4534 121.011L125.748 179.16L65.1267 106.316L127.744 173.777L70.8914 92.8631L130.146 168.897L77.6843 80.8003L132.926 164.574L85.4311 70.2595L136.056 160.856L94.0469 61.3565L139.499 157.782L103.437 54.1885L143.219 155.388L113.499 48.8343L147.175 153.698L124.123 45.3525Z" fill="#FF3460"/>
<path d="M141.834 241.206C137.959 224.572 143.871 212.379 156.612 198.314C166.926 187.44 178.081 180.102 174.994 166.851C172.348 155.496 161.778 151.518 150.689 154.101C139.333 156.747 129.64 166.601 133.001 181.026L91.1487 190.776C83.0776 156.129 105.045 121.205 141.071 112.813C177.66 104.29 209.42 125.227 216.265 154.611C220.721 173.736 219.645 189.179 203.595 208.11C191.549 222.607 183.237 229.811 184.802 236.531L184.868 236.812L143.016 246.562L141.834 241.206ZM144.768 293.992C142.967 286.128 144.348 277.87 148.612 271.021C152.876 264.172 159.675 259.286 167.527 257.431C175.389 255.63 183.643 257.01 190.491 261.271C197.34 265.531 202.226 272.326 204.084 280.174C205.885 288.036 204.505 296.291 200.245 303.139C195.984 309.987 189.189 314.873 181.341 316.732C173.478 318.537 165.219 317.16 158.368 312.9C151.516 308.64 146.627 301.843 144.768 293.992V293.992Z" fill="#7E1598"/>
<path d="M132.437 237.825C128.562 221.19 134.474 208.997 147.215 194.932C157.529 184.058 168.683 176.721 165.596 163.47C162.951 152.114 152.381 148.136 141.291 150.719C129.936 153.365 120.243 163.219 123.603 177.645L81.7513 187.394C73.6802 152.747 95.6481 117.824 131.673 109.432C168.262 100.908 200.023 121.846 206.868 151.23C211.323 170.354 210.247 185.797 194.198 204.728C182.152 219.225 173.839 226.429 175.405 233.149L175.47 233.431L133.619 243.18L132.437 237.825ZM135.371 290.611C133.569 282.746 134.951 274.489 139.215 267.639C143.478 260.79 150.278 255.905 158.13 254.05C165.991 252.249 174.246 253.629 181.094 257.889C187.942 262.15 192.828 268.945 194.687 276.793C196.488 284.654 195.108 292.909 190.847 299.757C186.587 306.605 179.792 311.491 171.944 313.35C164.08 315.156 155.822 313.778 148.97 309.518C142.119 305.258 137.23 298.461 135.371 290.611Z" fill="url(#paint1_linear_178_2425)" stroke="#7E1598" stroke-width="4"/>
<mask id="path-5-inside-1_178_2425" fill="white">
<path fill-rule="evenodd" clip-rule="evenodd" d="M186.277 31.7109L58.9758 61.366C64.4367 85.3906 51.1823 108.957 29.2526 114.214L89.8936 374.529C111.969 369.535 134.356 384.948 139.973 409.063C139.994 409.15 140.014 409.238 140.034 409.325L267.335 379.67C267.314 379.583 267.294 379.495 267.273 379.408C261.635 355.205 275.023 331.402 297.176 326.241C298.064 326.034 298.952 325.86 299.84 325.719L239.156 65.2185C238.297 65.484 237.423 65.7207 236.535 65.9275C214.463 71.0694 192.016 55.7627 186.277 31.7109Z"/>
</mask>
<path d="M58.9758 61.366L58.5221 59.4181L56.5847 59.8695L57.0256 61.8093L58.9758 61.366ZM186.277 31.7109L188.222 31.2467L187.761 29.3117L185.823 29.763L186.277 31.7109ZM29.2526 114.214L28.7864 112.269L26.8539 112.732L27.3048 114.667L29.2526 114.214ZM89.8936 374.529L87.9458 374.982L88.3966 376.918L90.3349 376.479L89.8936 374.529ZM140.034 409.325L138.084 409.769L138.529 411.729L140.488 411.273L140.034 409.325ZM267.335 379.67L267.789 381.618L269.747 381.162L269.28 379.206L267.335 379.67ZM299.84 325.719L300.154 327.694L302.275 327.356L301.788 325.265L299.84 325.719ZM239.156 65.2185L241.104 64.7647L240.616 62.6736L238.565 63.3077L239.156 65.2185ZM59.4296 63.3138L186.731 33.6587L185.823 29.763L58.5221 59.4181L59.4296 63.3138ZM29.7189 116.159C52.8693 110.609 66.5926 85.8523 60.9261 60.9227L57.0256 61.8093C62.2807 84.9288 49.4952 107.305 28.7864 112.269L29.7189 116.159ZM91.8415 374.075L31.2005 113.76L27.3048 114.667L87.9458 374.982L91.8415 374.075ZM141.921 408.609C136.092 383.586 112.757 367.306 89.4523 372.578L90.3349 376.479C111.181 371.764 132.619 386.309 138.025 409.516L141.921 408.609ZM141.984 408.882C141.963 408.791 141.942 408.7 141.921 408.609L138.025 409.516C138.045 409.601 138.064 409.685 138.084 409.769L141.984 408.882ZM266.881 377.722L139.58 407.378L140.488 411.273L267.789 381.618L266.881 377.722ZM269.28 379.206C269.26 379.122 269.241 379.038 269.221 378.954L265.325 379.862C265.347 379.953 265.368 380.044 265.39 380.135L269.28 379.206ZM269.221 378.954C263.795 355.661 276.711 333.062 297.63 328.189L296.722 324.293C273.335 329.741 259.475 354.749 265.325 379.862L269.221 378.954ZM297.63 328.189C298.471 327.993 299.313 327.828 300.154 327.694L299.525 323.744C298.591 323.893 297.656 324.076 296.722 324.293L297.63 328.189ZM237.208 65.6722L297.892 326.173L301.788 325.265L241.104 64.7647L237.208 65.6722ZM236.989 67.8753C237.923 67.6578 238.842 67.4087 239.746 67.1293L238.565 63.3077C237.751 63.5592 236.923 63.7836 236.082 63.9796L236.989 67.8753ZM184.332 32.1751C190.287 57.1323 213.687 73.3037 236.989 67.8753L236.082 63.9796C215.238 68.8351 193.746 54.3932 188.222 31.2467L184.332 32.1751Z" fill="url(#paint2_linear_178_2425)" mask="url(#path-5-inside-1_178_2425)"/>
<mask id="path-7-inside-2_178_2425" fill="white">
<path fill-rule="evenodd" clip-rule="evenodd" d="M243.598 57.0619C242 57.6864 240.341 58.203 238.627 58.6023C217.668 63.4848 196.375 48.9736 191.068 26.1907C190.614 24.2415 190.291 22.2949 190.095 20.3617L50.0459 52.9864C50.7298 54.8049 51.3043 56.6929 51.7586 58.6431C56.9316 80.8492 44.5645 102.709 24.1361 107.468C23.2439 107.675 22.3511 107.847 21.459 107.984L85.1018 381.185L85.1131 381.182C106.735 376.145 128.702 391.116 134.178 414.62C134.527 416.119 134.801 417.616 135.001 419.107L275.572 386.361C274.664 384.16 273.92 381.85 273.359 379.444C268.22 357.382 280.507 335.665 300.802 330.937C302.935 330.44 305.071 330.151 307.193 330.056L243.598 57.0619Z"/>
</mask>
<path d="M243.598 57.0619L244.572 56.835L244.31 55.7101L243.234 56.1305L243.598 57.0619ZM190.095 20.3617L191.09 20.2605L190.975 19.13L189.868 19.3878L190.095 20.3617ZM50.0459 52.9864L49.8191 52.0125L48.7086 52.2712L49.1099 53.3384L50.0459 52.9864ZM21.459 107.984L21.3076 106.995L20.24 107.159L20.485 108.211L21.459 107.984ZM85.1018 381.185L84.1279 381.412L84.3548 382.386L85.3287 382.159L85.1018 381.185ZM135.001 419.107L134.01 419.241L134.157 420.331L135.228 420.081L135.001 419.107ZM275.572 386.361L275.799 387.335L276.945 387.068L276.496 385.98L275.572 386.361ZM307.193 330.056L307.237 331.055L308.44 331.002L308.167 329.829L307.193 330.056ZM238.401 57.6284C236.695 58.0257 234.987 58.2909 233.287 58.4304L233.451 60.4237C235.248 60.2762 237.053 59.9959 238.854 59.5762L238.401 57.6284ZM222.989 57.7566C219.617 57.0347 216.353 55.8316 213.279 54.2013L212.342 55.9682C215.574 57.6822 219.012 58.9505 222.571 59.7123L222.989 57.7566ZM204.832 48.1953C202.324 45.8785 200.067 43.2197 198.134 40.2678L196.461 41.3637C198.483 44.4518 200.847 47.2361 203.475 49.6644L204.832 48.1953ZM193.512 30.9628C192.934 29.3482 192.442 27.6802 192.042 25.9638L190.094 26.4175C190.511 28.2085 191.025 29.9499 191.629 31.6365L193.512 30.9628ZM192.042 25.9638C191.932 25.4922 191.83 25.0208 191.736 24.5497L189.775 24.9418C189.873 25.4335 189.979 25.9255 190.094 26.4175L192.042 25.9638ZM191.259 21.6966C191.195 21.2172 191.138 20.7384 191.09 20.2605L189.1 20.4629C189.151 20.9622 189.21 21.4623 189.277 21.963L191.259 21.6966ZM189.868 19.3878L184.866 20.5529L185.32 22.5008L190.322 21.3356L189.868 19.3878ZM174.863 22.8833L164.859 25.2136L165.313 27.1615L175.316 24.8311L174.863 22.8833ZM154.856 27.5439L144.852 29.8743L145.306 31.8221L155.309 29.4918L154.856 27.5439ZM134.849 32.2046L124.845 34.5349L125.299 36.4828L135.302 34.1525L134.849 32.2046ZM114.842 36.8653L104.838 39.1956L105.292 41.1435L115.295 38.8131L114.842 36.8653ZM94.8347 41.526L84.8313 43.8563L85.285 45.8041L95.2885 43.4738L94.8347 41.526ZM74.8278 46.1866L64.8243 48.517L65.278 50.4648L75.2815 48.1345L74.8278 46.1866ZM54.8208 50.8473L49.8191 52.0125L50.2728 53.9603L55.2746 52.7951L54.8208 50.8473ZM49.1099 53.3384C49.2789 53.7878 49.4411 54.2416 49.5963 54.6996L51.4905 54.0578C51.3283 53.5789 51.1587 53.1044 50.9819 52.6344L49.1099 53.3384ZM50.4338 57.467C50.5578 57.9308 50.6748 58.3985 50.7847 58.87L52.7325 58.4162C52.6178 57.9237 52.4956 57.4351 52.366 56.9504L50.4338 57.467ZM50.7847 58.87C51.1742 60.542 51.4619 62.2115 51.6522 63.8711L53.6392 63.6433C53.4402 61.9078 53.1394 60.1628 52.7325 58.4162L50.7847 58.87ZM51.6191 73.9918C51.2003 77.4035 50.3724 80.6985 49.1782 83.8025L51.0448 84.5206C52.298 81.2632 53.1655 77.8089 53.6042 74.2354L51.6191 73.9918ZM44.3831 92.6863C42.399 95.4339 40.0648 97.8901 37.4292 99.9724L38.669 101.542C41.4544 99.3412 43.9159 96.7496 46.0046 93.8572L44.3831 92.6863ZM28.7218 104.994C27.1764 105.603 25.5704 106.107 23.9092 106.494L24.3629 108.441C26.1201 108.032 27.8198 107.5 29.456 106.854L28.7218 104.994ZM23.9092 106.494C23.6936 106.544 23.478 106.592 23.2624 106.638L23.6788 108.594C23.9069 108.545 24.1349 108.495 24.3629 108.441L23.9092 106.494ZM21.9614 106.889C21.7434 106.926 21.5255 106.962 21.3076 106.995L21.6104 108.972C21.841 108.937 22.0716 108.899 22.3023 108.859L21.9614 106.889ZM20.485 108.211L21.7089 113.465L23.6568 113.011L22.4329 107.757L20.485 108.211ZM24.1567 123.972L26.6046 134.48L28.5524 134.026L26.1046 123.518L24.1567 123.972ZM29.0524 144.988L31.5002 155.495L33.448 155.042L31.0002 144.534L29.0524 144.988ZM33.948 166.003L36.3958 176.511L38.3436 176.057L35.8958 165.549L33.948 166.003ZM38.8436 187.019L41.2914 197.526L43.2392 197.073L40.7914 186.565L38.8436 187.019ZM43.7392 208.034L46.187 218.542L48.1348 218.088L45.687 207.58L43.7392 208.034ZM48.6348 229.05L51.0826 239.557L53.0304 239.104L50.5826 228.596L48.6348 229.05ZM53.5304 250.065L55.9782 260.573L57.926 260.119L55.4782 249.611L53.5304 250.065ZM58.426 271.081L60.8738 281.588L62.8216 281.135L60.3738 270.627L58.426 271.081ZM63.3216 292.096L65.7694 302.604L67.7172 302.15L65.2694 291.642L63.3216 292.096ZM68.2172 313.112L70.665 323.619L72.6128 323.166L70.165 312.658L68.2172 313.112ZM73.1128 334.127L75.5606 344.635L77.5084 344.181L75.0606 333.673L73.1128 334.127ZM78.0084 355.142L80.4562 365.65L82.404 365.196L79.9562 354.689L78.0084 355.142ZM82.904 376.158L84.1279 381.412L86.0757 380.958L84.8518 375.704L82.904 376.158ZM85.3287 382.159L85.3315 382.158L84.8778 380.21L84.8749 380.211L85.3287 382.159ZM85.3372 382.157L85.34 382.156L84.8862 380.208L84.8834 380.209L85.3372 382.157ZM85.34 382.156C87.1011 381.746 88.8642 381.472 90.6196 381.328L90.456 379.335C88.6033 379.487 86.7433 379.776 84.8862 380.208L85.34 382.156ZM101.253 382.024C104.735 382.769 108.105 384.011 111.279 385.695L112.216 383.928C108.884 382.161 105.34 380.853 101.671 380.068L101.253 382.024ZM119.999 391.895C122.588 394.287 124.919 397.032 126.915 400.08L128.588 398.984C126.502 395.8 124.066 392.93 121.356 390.426L119.999 391.895ZM131.686 409.686C132.283 411.353 132.791 413.075 133.204 414.847L135.152 414.393C134.721 412.546 134.192 410.751 133.569 409.012L131.686 409.686ZM133.204 414.847C133.289 415.21 133.369 415.574 133.444 415.938L135.402 415.53C135.324 415.151 135.24 414.772 135.152 414.393L133.204 414.847ZM133.848 418.135C133.907 418.504 133.961 418.873 134.01 419.241L135.992 418.974C135.941 418.59 135.884 418.206 135.823 417.821L133.848 418.135ZM135.228 420.081L140.249 418.912L139.795 416.964L134.774 418.133L135.228 420.081ZM150.289 416.573L160.33 414.234L159.876 412.286L149.836 414.625L150.289 416.573ZM170.371 411.895L180.412 409.556L179.958 407.608L169.917 409.947L170.371 411.895ZM190.452 407.217L200.493 404.877L200.039 402.93L189.999 405.269L190.452 407.217ZM210.534 402.538L220.575 400.199L220.121 398.252L210.08 400.591L210.534 402.538ZM230.615 397.86L240.656 395.521L240.202 393.574L230.162 395.913L230.615 397.86ZM250.697 393.182L260.738 390.843L260.284 388.896L250.243 391.235L250.697 393.182ZM270.778 388.504L275.799 387.335L275.345 385.387L270.324 386.557L270.778 388.504ZM276.496 385.98C276.271 385.435 276.057 384.883 275.853 384.324L273.974 385.01C274.188 385.594 274.412 386.172 274.647 386.742L276.496 385.98ZM274.771 380.94C274.614 380.372 274.468 379.797 274.333 379.218L272.385 379.671C272.526 380.277 272.679 380.877 272.843 381.471L274.771 380.94ZM274.333 379.218C273.946 377.557 273.66 375.898 273.471 374.25L271.484 374.477C271.682 376.202 271.981 377.936 272.385 379.671L274.333 379.218ZM273.504 364.196C273.92 360.807 274.743 357.534 275.929 354.451L274.062 353.733C272.817 356.969 271.955 360.402 271.519 363.953L273.504 364.196ZM280.692 345.626C282.663 342.897 284.982 340.457 287.6 338.389L286.36 336.819C283.592 339.006 281.146 341.581 279.071 344.455L280.692 345.626ZM296.249 333.401C297.784 332.795 299.379 332.295 301.029 331.911L300.575 329.963C298.829 330.37 297.14 330.899 295.515 331.541L296.249 333.401ZM301.029 331.911C301.541 331.792 302.053 331.685 302.565 331.59L302.201 329.623C301.659 329.724 301.117 329.837 300.575 329.963L301.029 331.911ZM305.672 331.161C306.195 331.114 306.716 331.078 307.237 331.055L307.148 329.057C306.597 329.082 306.044 329.119 305.491 329.17L305.672 331.161ZM308.167 329.829L306.944 324.579L304.996 325.033L306.219 330.283L308.167 329.829ZM304.498 314.08L302.052 303.58L300.104 304.034L302.55 314.533L304.498 314.08ZM299.606 293.08L297.16 282.58L295.212 283.034L297.658 293.534L299.606 293.08ZM294.714 272.08L292.268 261.581L290.32 262.034L292.766 272.534L294.714 272.08ZM289.822 251.081L287.376 240.581L285.428 241.035L287.874 251.535L289.822 251.081ZM284.93 230.081L282.484 219.582L280.536 220.035L282.982 230.535L284.93 230.081ZM280.038 209.082L277.592 198.582L275.644 199.036L278.09 209.536L280.038 209.082ZM275.146 188.082L272.7 177.582L270.753 178.036L273.198 188.536L275.146 188.082ZM270.254 167.083L267.808 156.583L265.861 157.037L268.307 167.536L270.254 167.083ZM265.363 146.083L262.917 135.583L260.969 136.037L263.415 146.537L265.363 146.083ZM260.471 125.084L258.025 114.584L256.077 115.038L258.523 125.537L260.471 125.084ZM255.579 104.084L253.133 93.5842L251.185 94.038L253.631 104.538L255.579 104.084ZM250.687 83.0844L248.241 72.5847L246.293 73.0384L248.739 83.5382L250.687 83.0844ZM245.795 62.0849L244.572 56.835L242.624 57.2888L243.847 62.5386L245.795 62.0849ZM243.234 56.1305C242.842 56.2837 242.446 56.4302 242.047 56.5699L242.707 58.4578C243.129 58.3101 243.548 58.1552 243.962 57.9933L243.234 56.1305ZM239.629 57.3191C239.223 57.4291 238.813 57.5322 238.401 57.6284L238.854 59.5762C239.29 59.4747 239.723 59.3657 240.152 59.2496L239.629 57.3191ZM243.598 57.0619L245.546 56.6081L245.022 54.3582L242.87 55.1991L243.598 57.0619ZM190.095 20.3617L192.084 20.1592L191.854 17.8982L189.641 18.4138L190.095 20.3617ZM50.0459 52.9864L49.5922 51.0385L47.3712 51.5559L48.1739 53.6904L50.0459 52.9864ZM21.459 107.984L21.1562 106.007L19.0211 106.334L19.5111 108.438L21.459 107.984ZM85.1018 381.185L83.154 381.639L83.6077 383.587L85.5556 383.133L85.1018 381.185ZM135.001 419.107L133.019 419.374L133.313 421.554L135.455 421.055L135.001 419.107ZM275.572 386.361L276.026 388.309L278.318 387.775L277.421 385.598L275.572 386.361ZM307.193 330.056L307.282 332.054L309.687 331.947L309.141 329.602L307.193 330.056ZM238.174 56.6544C236.516 57.0406 234.857 57.2982 233.206 57.4337L233.533 61.4203C235.379 61.2689 237.232 60.981 239.081 60.5501L238.174 56.6544ZM223.199 56.7788C219.92 56.0768 216.742 54.9063 213.748 53.3179L211.873 56.8516C215.184 58.6075 218.709 59.9083 222.361 60.6902L223.199 56.7788ZM205.511 47.4608C203.063 45.1997 200.859 42.6037 198.97 39.7199L195.624 41.9116C197.691 45.0679 200.108 47.9149 202.797 50.399L205.511 47.4608ZM194.453 30.6259C193.889 29.0473 193.407 27.416 193.016 25.7369L189.12 26.6444C189.546 28.4727 190.071 30.2508 190.687 31.9733L194.453 30.6259ZM193.016 25.7369C192.908 25.2755 192.809 24.8144 192.716 24.3536L188.794 25.1379C188.894 25.6398 189.003 26.1421 189.12 26.6444L193.016 25.7369ZM192.25 21.5635C192.187 21.0946 192.132 20.6265 192.084 20.1592L188.105 20.5641C188.157 21.0741 188.217 21.5848 188.286 22.0962L192.25 21.5635ZM189.641 18.4138L184.639 19.579L185.547 23.4747L190.549 22.3095L189.641 18.4138ZM174.636 21.9093L164.632 24.2397L165.54 28.1354L175.543 25.805L174.636 21.9093ZM154.629 26.57L144.625 28.9004L145.533 32.796L155.536 30.4657L154.629 26.57ZM134.622 31.2307L124.618 33.561L125.526 37.4567L135.529 35.1264L134.622 31.2307ZM114.615 35.8914L104.611 38.2217L105.519 42.1174L115.522 39.7871L114.615 35.8914ZM94.6079 40.552L84.6044 42.8824L85.5119 46.7781L95.5154 44.4477L94.6079 40.552ZM74.6009 45.2127L64.5974 47.543L65.5049 51.4387L75.5084 49.1084L74.6009 45.2127ZM54.5939 49.8734L49.5922 51.0385L50.4997 54.9342L55.5014 53.7691L54.5939 49.8734ZM48.1739 53.6904C48.3391 54.1295 48.4975 54.5729 48.6492 55.0205L52.4377 53.7369C52.2719 53.2476 52.0986 52.7627 51.9179 52.2824L48.1739 53.6904ZM49.4678 57.7252C49.589 58.1787 49.7034 58.6359 49.8107 59.0969L53.7064 58.1893C53.5893 57.6864 53.4644 57.1872 53.332 56.6921L49.4678 57.7252ZM49.8107 59.0969C50.1916 60.7316 50.4728 62.3634 50.6587 63.985L54.6327 63.5293C54.4293 61.7559 54.122 59.9732 53.7064 58.1893L49.8107 59.0969ZM50.6266 73.8699C50.2176 77.2008 49.4096 80.4161 48.2449 83.4435L51.9781 84.8797C53.2609 81.5456 54.1482 78.0115 54.5967 74.3573L50.6266 73.8699ZM43.5724 92.1009C41.6406 94.776 39.37 97.1646 36.8093 99.1877L39.2889 102.326C42.1491 100.067 44.6743 97.4075 46.8153 94.4426L43.5724 92.1009ZM28.3547 104.063C26.8547 104.655 25.2956 105.144 23.6823 105.52L24.5898 109.415C26.395 108.995 28.1414 108.448 29.823 107.784L28.3547 104.063ZM23.6823 105.52C23.4729 105.568 23.2636 105.615 23.0542 105.66L23.887 109.572C24.1213 109.522 24.3556 109.47 24.5898 109.415L23.6823 105.52ZM21.791 105.903C21.5793 105.94 21.3677 105.974 21.1562 106.007L21.7617 109.961C21.9987 109.924 22.2357 109.886 22.4727 109.845L21.791 105.903ZM19.5111 108.438L20.735 113.691L24.6307 112.784L23.4068 107.53L19.5111 108.438ZM23.1828 124.199L25.6306 134.707L29.5263 133.799L27.0785 123.292L23.1828 124.199ZM28.0784 145.215L30.5262 155.722L34.4219 154.815L31.9741 144.307L28.0784 145.215ZM32.974 166.23L35.4218 176.738L39.3175 175.83L36.8697 165.323L32.974 166.23ZM37.8696 187.246L40.3174 197.753L44.2131 196.846L41.7653 186.338L37.8696 187.246ZM42.7652 208.261L45.213 218.769L49.1087 217.861L46.6609 207.354L42.7652 208.261ZM47.6608 229.277L50.1086 239.784L54.0043 238.877L51.5565 228.369L47.6608 229.277ZM52.5565 250.292L55.0043 260.8L58.8999 259.892L56.4521 249.384L52.5565 250.292ZM57.4521 271.307L59.8999 281.815L63.7955 280.908L61.3477 270.4L57.4521 271.307ZM62.3477 292.323L64.7955 302.831L68.6911 301.923L66.2433 291.415L62.3477 292.323ZM67.2433 313.338L69.6911 323.846L73.5868 322.939L71.139 312.431L67.2433 313.338ZM72.1389 334.354L74.5867 344.862L78.4823 343.954L76.0346 333.446L72.1389 334.354ZM77.0345 355.369L79.4823 365.877L83.378 364.97L80.9302 354.462L77.0345 355.369ZM81.9301 376.385L83.154 381.639L87.0497 380.731L85.8258 375.477L81.9301 376.385ZM85.5556 383.133L85.5584 383.132L84.6509 379.236L84.6481 379.237L85.5556 383.133ZM85.564 383.131L85.5669 383.13L84.6594 379.234L84.6565 379.235L85.564 383.131ZM85.5669 383.13C87.2801 382.731 88.9946 382.465 90.7014 382.325L90.3743 378.338C88.4729 378.494 86.5644 378.791 84.6594 379.234L85.5669 383.13ZM101.043 383.002C104.432 383.727 107.715 384.937 110.81 386.578L112.684 383.044C109.274 381.236 105.642 379.896 101.881 379.09L101.043 383.002ZM119.32 392.63C121.849 394.966 124.127 397.648 126.078 400.628L129.424 398.436C127.294 395.184 124.805 392.251 122.035 389.692L119.32 392.63ZM130.745 410.023C131.328 411.654 131.826 413.339 132.23 415.073L136.126 414.166C135.687 412.282 135.146 410.45 134.511 408.675L130.745 410.023ZM132.23 415.073C132.313 415.43 132.391 415.786 132.465 416.142L136.381 415.326C136.301 414.939 136.216 414.553 136.126 414.166L132.23 415.073ZM132.86 418.292C132.918 418.653 132.971 419.014 133.019 419.374L136.983 418.84C136.931 418.449 136.873 418.056 136.811 417.664L132.86 418.292ZM135.455 421.055L140.475 419.886L139.568 415.99L134.548 417.159L135.455 421.055ZM150.516 417.546L160.557 415.207L159.649 411.312L149.609 413.651L150.516 417.546ZM170.598 412.868L180.638 410.529L179.731 406.634L169.69 408.973L170.598 412.868ZM190.679 408.19L200.72 405.851L199.812 401.956L189.772 404.295L190.679 408.19ZM210.761 403.512L220.801 401.173L219.894 397.278L209.853 399.617L210.761 403.512ZM230.842 398.834L240.883 396.495L239.975 392.6L229.935 394.939L230.842 398.834ZM250.924 394.156L260.964 391.817L260.057 387.922L250.016 390.261L250.924 394.156ZM271.005 389.478L276.026 388.309L275.118 384.413L270.098 385.583L271.005 389.478ZM277.421 385.598C277.201 385.066 276.991 384.527 276.792 383.981L273.035 385.353C273.253 385.95 273.482 386.541 273.723 387.124L277.421 385.598ZM275.735 380.674C275.582 380.119 275.439 379.558 275.307 378.991L271.411 379.898C271.556 380.517 271.711 381.13 271.879 381.737L275.735 380.674ZM275.307 378.991C274.929 377.367 274.65 375.746 274.465 374.136L270.491 374.591C270.693 376.354 270.998 378.125 271.411 379.898L275.307 378.991ZM274.497 364.318C274.903 361.01 275.705 357.816 276.862 354.81L273.129 353.373C271.854 356.687 270.972 360.199 270.527 363.831L274.497 364.318ZM281.503 346.211C283.421 343.555 285.676 341.182 288.219 339.173L285.74 336.035C282.897 338.28 280.388 340.923 278.26 343.87L281.503 346.211ZM296.616 334.331C298.106 333.743 299.654 333.258 301.256 332.885L300.349 328.989C298.555 329.407 296.819 329.951 295.148 330.61L296.616 334.331ZM301.256 332.885C301.753 332.769 302.25 332.665 302.747 332.573L302.019 328.64C301.462 328.743 300.905 328.86 300.349 328.989L301.256 332.885ZM305.763 332.157C306.27 332.111 306.776 332.077 307.282 332.054L307.104 328.058C306.537 328.083 305.969 328.122 305.4 328.174L305.763 332.157ZM309.141 329.602L307.918 324.353L304.022 325.26L305.245 330.51L309.141 329.602ZM305.472 313.853L303.026 303.353L299.13 304.26L301.576 314.76L305.472 313.853ZM300.58 292.853L298.134 282.353L294.238 283.261L296.684 293.761L300.58 292.853ZM295.688 271.854L293.242 261.354L289.346 262.261L291.792 272.761L295.688 271.854ZM290.796 250.854L288.35 240.354L284.454 241.262L286.9 251.762L290.796 250.854ZM285.904 229.855L283.458 219.355L279.562 220.262L282.008 230.762L285.904 229.855ZM281.012 208.855L278.566 198.355L274.67 199.263L277.116 209.762L281.012 208.855ZM276.12 187.855L273.674 177.356L269.779 178.263L272.225 188.763L276.12 187.855ZM271.228 166.856L268.782 156.356L264.887 157.264L267.333 167.763L271.228 166.856ZM266.336 145.856L263.89 135.356L259.995 136.264L262.441 146.764L266.336 145.856ZM261.445 124.857L258.999 114.357L255.103 115.264L257.549 125.764L261.445 124.857ZM256.553 103.857L254.107 93.3574L250.211 94.2649L252.657 104.765L256.553 103.857ZM251.661 82.8576L249.215 72.3578L245.319 73.2653L247.765 83.7651L251.661 82.8576ZM246.769 61.858L245.546 56.6081L241.65 57.5157L242.873 62.7655L246.769 61.858ZM242.87 55.1991C242.489 55.3479 242.105 55.4903 241.717 55.626L243.037 59.4017C243.471 59.2501 243.9 59.091 244.326 58.9247L242.87 55.1991ZM239.367 56.3539C238.973 56.4608 238.575 56.561 238.174 56.6544L239.081 60.5501C239.529 60.4459 239.973 60.3341 240.413 60.2148L239.367 56.3539Z" fill="url(#paint3_linear_178_2425)" mask="url(#path-7-inside-2_178_2425)"/>
<circle cx="221.205" cy="27.2949" r="15.2904" transform="rotate(-13.1133 221.205 27.2949)" fill="url(#paint4_radial_178_2425)"/>
<circle cx="28.0938" cy="72.2807" r="15.2904" transform="rotate(-13.1133 28.0938 72.2807)" fill="url(#paint5_radial_178_2425)"/>
<circle cx="299.427" cy="363.078" r="15.2904" transform="rotate(-13.1133 299.427 363.078)" fill="url(#paint6_radial_178_2425)"/>
<circle cx="106.315" cy="408.064" r="15.2904" transform="rotate(-13.1133 106.315 408.064)" fill="url(#paint7_radial_178_2425)"/>
<defs>
<linearGradient id="paint0_linear_178_2425" x1="123.063" y1="56.0352" x2="123.063" y2="450.133" gradientUnits="userSpaceOnUse">
<stop stop-color="#FF335F"/>
<stop offset="1" stop-color="#9D0FC0"/>
</linearGradient>
<linearGradient id="paint1_linear_178_2425" x1="130.428" y1="109.722" x2="177.559" y2="312.042" gradientUnits="userSpaceOnUse">
<stop stop-color="#FF335F"/>
<stop offset="0.473958" stop-color="#E4FA6B"/>
<stop offset="1" stop-color="#FF335F"/>
</linearGradient>
<linearGradient id="paint2_linear_178_2425" x1="25.585" y1="98.4697" x2="323.706" y2="346.603" gradientUnits="userSpaceOnUse">
<stop stop-color="#E4FA6B"/>
<stop offset="1" stop-color="#FF335F"/>
</linearGradient>
<linearGradient id="paint3_linear_178_2425" x1="17.5947" y1="91.3956" x2="331.152" y2="353.671" gradientUnits="userSpaceOnUse">
<stop stop-color="#E4FA6B"/>
<stop offset="1" stop-color="#FF335F"/>
</linearGradient>
<radialGradient id="paint4_radial_178_2425" cx="0" cy="0" r="1" gradientUnits="userSpaceOnUse" gradientTransform="translate(230.084 23.349) rotate(114.775) scale(21.1863)">
<stop stop-color="#E4FA6B"/>
<stop offset="0.567708" stop-color="#FF335F"/>
<stop offset="1" stop-color="#7E1598"/>
</radialGradient>
<radialGradient id="paint5_radial_178_2425" cx="0" cy="0" r="1" gradientUnits="userSpaceOnUse" gradientTransform="translate(36.9721 68.3348) rotate(114.775) scale(21.1863)">
<stop stop-color="#E4FA6B"/>
<stop offset="0.567708" stop-color="#FF335F"/>
<stop offset="1" stop-color="#7E1598"/>
</radialGradient>
<radialGradient id="paint6_radial_178_2425" cx="0" cy="0" r="1" gradientUnits="userSpaceOnUse" gradientTransform="translate(308.305 359.132) rotate(114.775) scale(21.1863)">
<stop stop-color="#E4FA6B"/>
<stop offset="0.567708" stop-color="#FF335F"/>
<stop offset="1" stop-color="#7E1598"/>
</radialGradient>
<radialGradient id="paint7_radial_178_2425" cx="0" cy="0" r="1" gradientUnits="userSpaceOnUse" gradientTransform="translate(115.194 404.118) rotate(114.775) scale(21.1863)">
<stop stop-color="#E4FA6B"/>
<stop offset="0.567708" stop-color="#FF335F"/>
<stop offset="1" stop-color="#7E1598"/>
</radialGradient>
</defs>
</svg>
