<svg width="215" height="348" viewBox="0 0 215 348" fill="none" xmlns="http://www.w3.org/2000/svg">
<path d="M169.113 20.6174L170.468 81.4394L121.385 60.2697L169.113 20.6174Z" fill="url(#paint0_linear_178_2371)"/>
<path d="M169.113 20.6174L192.235 90.8276L170.468 81.4394L169.113 20.6174Z" fill="url(#paint1_linear_178_2371)"/>
<path d="M169.113 20.6174L121.385 60.2697L99.4052 50.7894L169.113 20.6174Z" fill="url(#paint2_linear_178_2371)"/>
<path d="M122.527 121L121.172 60.1777L170.254 81.3473L122.527 121Z" fill="url(#paint3_linear_178_2371)"/>
<path d="M122.527 121L99.4052 50.7894L121.172 60.1777L122.527 121Z" fill="url(#paint4_linear_178_2371)"/>
<path d="M122.527 121L170.254 81.3472L192.235 90.8276L122.527 121Z" fill="url(#paint5_linear_178_2371)"/>
<path d="M25.2235 237.4L74.3882 273.232L27.777 299.397L25.2235 237.4Z" fill="url(#paint6_linear_178_2371)"/>
<path d="M76.739 335.344L27.5743 299.511L74.1855 273.346L76.739 335.344Z" fill="url(#paint7_linear_178_2371)"/>
<path d="M25.2235 237.4L50.5242 286.722L27.777 299.397L25.2235 237.4Z" fill="url(#paint8_linear_178_2371)"/>
<path d="M76.7391 335.344L27.5743 299.511L50.5241 286.722L76.7391 335.344Z" fill="url(#paint9_linear_178_2371)"/>
<path fill-rule="evenodd" clip-rule="evenodd" d="M61.5083 280.463L39.3971 264.347L40.5455 292.23L40.4543 292.281L62.5654 308.396L61.417 280.514L61.5083 280.463Z" fill="url(#paint10_linear_178_2371)"/>
<defs>
<linearGradient id="paint0_linear_178_2371" x1="144.109" y1="13.1603" x2="187.831" y2="29.6437" gradientUnits="userSpaceOnUse">
<stop stop-color="#FF335F"/>
<stop offset="1" stop-color="#E4FA6B"/>
</linearGradient>
<linearGradient id="paint1_linear_178_2371" x1="169.763" y1="24.2252" x2="209.821" y2="39.5039" gradientUnits="userSpaceOnUse">
<stop stop-color="#FF335F"/>
<stop offset="1" stop-color="#E4FA6B"/>
</linearGradient>
<linearGradient id="paint2_linear_178_2371" x1="122.075" y1="3.65715" x2="164.64" y2="19.7632" gradientUnits="userSpaceOnUse">
<stop stop-color="#FF335F"/>
<stop offset="1" stop-color="#E4FA6B"/>
</linearGradient>
<linearGradient id="paint3_linear_178_2371" x1="147.531" y1="128.457" x2="103.809" y2="111.973" gradientUnits="userSpaceOnUse">
<stop stop-color="#FF335F"/>
<stop offset="1" stop-color="#E4FA6B"/>
</linearGradient>
<linearGradient id="paint4_linear_178_2371" x1="121.877" y1="117.392" x2="81.8185" y2="102.113" gradientUnits="userSpaceOnUse">
<stop stop-color="#FF335F"/>
<stop offset="1" stop-color="#E4FA6B"/>
</linearGradient>
<linearGradient id="paint5_linear_178_2371" x1="169.564" y1="137.96" x2="127" y2="121.854" gradientUnits="userSpaceOnUse">
<stop stop-color="#FF335F"/>
<stop offset="1" stop-color="#E4FA6B"/>
</linearGradient>
<linearGradient id="paint6_linear_178_2371" x1="35.7934" y1="282.946" x2="25.9987" y2="250.5" gradientUnits="userSpaceOnUse">
<stop stop-color="#FF335F"/>
<stop offset="1" stop-color="#E4FA6B"/>
</linearGradient>
<linearGradient id="paint7_linear_178_2371" x1="97.8398" y1="319.995" x2="58.206" y2="344.743" gradientUnits="userSpaceOnUse">
<stop stop-color="#FF335F"/>
<stop offset="1" stop-color="#E4FA6B"/>
</linearGradient>
<linearGradient id="paint8_linear_178_2371" x1="4.12277" y1="252.749" x2="43.7565" y2="228" gradientUnits="userSpaceOnUse">
<stop stop-color="#FF335F"/>
<stop offset="1" stop-color="#E4FA6B"/>
</linearGradient>
<linearGradient id="paint9_linear_178_2371" x1="49.9966" y1="282.225" x2="76.6751" y2="300.275" gradientUnits="userSpaceOnUse">
<stop stop-color="#FF335F"/>
<stop offset="1" stop-color="#E4FA6B"/>
</linearGradient>
<linearGradient id="paint10_linear_178_2371" x1="83.2062" y1="290.448" x2="68.8776" y2="313.277" gradientUnits="userSpaceOnUse">
<stop stop-color="#FF0037"/>
<stop offset="1" stop-color="#E4FA6B"/>
</linearGradient>
</defs>
</svg>
