<svg width="144" height="179" viewBox="0 0 144 179" fill="none" xmlns="http://www.w3.org/2000/svg">
<path fill-rule="evenodd" clip-rule="evenodd" d="M105.387 20.7669L77.2905 15.4806L69.99 54.2826C47.3568 56.3483 27.9033 73.1553 23.4926 96.5976C18.1654 124.911 36.7996 152.182 65.1132 157.51C93.4267 162.837 120.698 144.203 126.025 115.889C130.436 92.4468 118.421 69.7189 98.0861 59.5688L105.387 20.7669Z" fill="url(#paint0_linear_177_156)"/>
<ellipse cx="91.3043" cy="18.3062" rx="14.2945" ry="5.75495" transform="rotate(10.6556 91.3043 18.3062)" fill="url(#paint1_linear_177_156)"/>
<ellipse cx="61.8767" cy="114.514" rx="41.4658" ry="33.7798" transform="rotate(58.1753 61.8767 114.514)" fill="url(#paint2_linear_177_156)"/>
<defs>
<linearGradient id="paint0_linear_177_156" x1="51.4414" y1="50.1059" x2="111.881" y2="48.7245" gradientUnits="userSpaceOnUse">
<stop stop-color="#FF335F"/>
<stop offset="1" stop-color="#E4FA6B"/>
</linearGradient>
<linearGradient id="paint1_linear_177_156" x1="92.2325" y1="24.0611" x2="83.2316" y2="18.1607" gradientUnits="userSpaceOnUse">
<stop stop-color="#FF335F"/>
<stop offset="1" stop-color="#E4FA6B"/>
</linearGradient>
<linearGradient id="paint2_linear_177_156" x1="67.7463" y1="61.7534" x2="61.999" y2="149.122" gradientUnits="userSpaceOnUse">
<stop stop-color="#E4FA6B"/>
<stop offset="1" stop-color="#FF335F"/>
</linearGradient>
</defs>
</svg>
