<svg width="418" height="359" viewBox="0 0 418 359" fill="none" xmlns="http://www.w3.org/2000/svg">
<path d="M139.86 257.393L113.52 222.613L324.02 47.2749L365.684 102.29L139.86 257.393Z" fill="url(#paint0_linear_178_2320)"/>
<path d="M122.14 233.996L113.52 222.613L324.02 47.2747L336.232 63.3998L122.14 233.996Z" fill="url(#paint1_linear_178_2320)"/>
<path d="M139.86 257.393L134.711 250.595L358.501 92.8044L365.684 102.29L139.86 257.393Z" fill="url(#paint2_linear_178_2320)"/>
<path d="M365.684 102.29L324.02 47.2748L378.051 49.6399L365.684 102.29Z" fill="url(#paint3_linear_178_2320)"/>
<path d="M365.684 102.29L344.852 74.7822L378.051 49.6399L365.684 102.29Z" fill="url(#paint4_linear_178_2320)"/>
<rect x="146.264" y="286.871" width="95.9811" height="12.6917" transform="rotate(-127.138 146.264 286.871)" fill="url(#paint5_linear_178_2320)"/>
<path d="M155.919 298.963L136.146 294.534L156.382 279.209L155.919 298.963Z" fill="url(#paint6_linear_178_2320)"/>
<path d="M155.919 298.963L136.146 294.534L146.58 286.632L155.919 298.963Z" fill="url(#paint7_linear_178_2320)"/>
<path d="M78.6624 198.265L98.4348 202.694L78.1994 218.019L78.6624 198.265Z" fill="url(#paint8_linear_178_2320)"/>
<path d="M78.6624 198.265L98.4348 202.694L88.0009 210.596L78.6624 198.265Z" fill="url(#paint9_linear_178_2320)"/>
<rect x="136.146" y="294.534" width="95.9811" height="12.6917" transform="rotate(-127.138 136.146 294.534)" fill="url(#paint10_linear_178_2320)"/>
<rect x="56.6378" y="322.907" width="45.2142" height="80.5131" transform="rotate(-127.138 56.6378 322.907)" fill="url(#paint11_linear_178_2320)"/>
<path d="M58.8894 320.953L71.8527 311.135L65.8588 259.206L52.1051 269.622L58.8894 320.953Z" fill="url(#paint12_linear_178_2320)"/>
<ellipse cx="42.989" cy="304.885" rx="22.6071" ry="5.55263" transform="rotate(-127.138 42.989 304.885)" fill="url(#paint13_linear_178_2320)"/>
<path d="M84.3032 301.955L98.8474 290.94L91.9434 239.452L78.3478 249.748L84.3032 301.955Z" fill="url(#paint14_linear_178_2320)"/>
<defs>
<linearGradient id="paint0_linear_178_2320" x1="162.183" y1="221.888" x2="142.746" y2="191.915" gradientUnits="userSpaceOnUse">
<stop stop-color="#FF335F"/>
<stop offset="1" stop-color="#9D0FC0"/>
</linearGradient>
<linearGradient id="paint1_linear_178_2320" x1="132.896" y1="223.194" x2="114.151" y2="194.073" gradientUnits="userSpaceOnUse">
<stop stop-color="#FF335F"/>
<stop offset="1" stop-color="#9D0FC0"/>
</linearGradient>
<linearGradient id="paint2_linear_178_2320" x1="159.942" y1="239.818" x2="144.243" y2="209.617" gradientUnits="userSpaceOnUse">
<stop stop-color="#FF335F"/>
<stop offset="0.468933" stop-color="#D1228C"/>
<stop offset="1" stop-color="#9D0FC0"/>
</linearGradient>
<linearGradient id="paint3_linear_178_2320" x1="364.244" y1="96.5835" x2="282.877" y2="17.4771" gradientUnits="userSpaceOnUse">
<stop stop-color="#FF335F"/>
<stop offset="1" stop-color="#9D0FC0"/>
</linearGradient>
<linearGradient id="paint4_linear_178_2320" x1="365.88" y1="98.7431" x2="344.68" y2="69.3766" gradientUnits="userSpaceOnUse">
<stop stop-color="#FF335F"/>
<stop offset="1" stop-color="#9D0FC0"/>
</linearGradient>
<linearGradient id="paint5_linear_178_2320" x1="153.8" y1="287.571" x2="261.372" y2="212.719" gradientUnits="userSpaceOnUse">
<stop stop-color="#FF335F"/>
<stop offset="1" stop-color="#9D0FC0"/>
</linearGradient>
<linearGradient id="paint6_linear_178_2320" x1="145.868" y1="305.051" x2="129.236" y2="285.472" gradientUnits="userSpaceOnUse">
<stop stop-color="#FF335F"/>
<stop offset="1" stop-color="#9D0FC0"/>
</linearGradient>
<linearGradient id="paint7_linear_178_2320" x1="145.868" y1="305.051" x2="132.071" y2="302.603" gradientUnits="userSpaceOnUse">
<stop stop-color="#FF335F"/>
<stop offset="1" stop-color="#9D0FC0"/>
</linearGradient>
<linearGradient id="paint8_linear_178_2320" x1="88.7132" y1="192.177" x2="105.345" y2="211.756" gradientUnits="userSpaceOnUse">
<stop stop-color="#FF335F"/>
<stop offset="1" stop-color="#9D0FC0"/>
</linearGradient>
<linearGradient id="paint9_linear_178_2320" x1="88.7132" y1="192.177" x2="102.51" y2="194.625" gradientUnits="userSpaceOnUse">
<stop stop-color="#FF335F"/>
<stop offset="1" stop-color="#9D0FC0"/>
</linearGradient>
<linearGradient id="paint10_linear_178_2320" x1="143.682" y1="295.234" x2="210.551" y2="305.553" gradientUnits="userSpaceOnUse">
<stop stop-color="#FF335F"/>
<stop offset="1" stop-color="#9D0FC0"/>
</linearGradient>
<linearGradient id="paint11_linear_178_2320" x1="60.1875" y1="327.348" x2="92.4336" y2="327.718" gradientUnits="userSpaceOnUse">
<stop stop-color="#FF335F"/>
<stop offset="1" stop-color="#9D0FC0"/>
</linearGradient>
<linearGradient id="paint12_linear_178_2320" x1="45.7036" y1="283.177" x2="69.6015" y2="279.258" gradientUnits="userSpaceOnUse">
<stop stop-color="#FF335F"/>
<stop offset="1" stop-color="#9D0FC0"/>
</linearGradient>
<linearGradient id="paint13_linear_178_2320" x1="95.3423" y1="301.794" x2="94.631" y2="318.145" gradientUnits="userSpaceOnUse">
<stop stop-color="#FF335F"/>
<stop offset="1" stop-color="#9D0FC0"/>
</linearGradient>
<linearGradient id="paint14_linear_178_2320" x1="81.0328" y1="264.133" x2="96.2175" y2="259.61" gradientUnits="userSpaceOnUse">
<stop stop-color="#FF335F"/>
<stop offset="1" stop-color="#9D0FC0"/>
</linearGradient>
</defs>
</svg>
