<svg width="129" height="525" viewBox="0 0 129 525" fill="none" xmlns="http://www.w3.org/2000/svg">
<path d="M50.9378 404.34L90.7494 450.29L39.4483 465.256L50.9378 404.34Z" fill="url(#paint0_linear_178_2239)"/>
<path d="M50.9382 404.34L113.501 443.652L90.7497 450.29L50.9382 404.34Z" fill="url(#paint1_linear_178_2239)"/>
<path d="M50.9376 404.34L39.4482 465.256L16.4742 471.958L50.9376 404.34Z" fill="url(#paint2_linear_178_2239)"/>
<path d="M79.0366 511.27L39.225 465.321L90.5261 450.355L79.0366 511.27Z" fill="url(#paint3_linear_178_2239)"/>
<path d="M79.0366 511.27L16.4742 471.958L39.2251 465.321L79.0366 511.27Z" fill="url(#paint4_linear_178_2239)"/>
<path d="M79.0366 511.27L90.5261 450.355L113.5 443.653L79.0366 511.27Z" fill="url(#paint5_linear_178_2239)"/>
<path d="M70.8071 4.58144L86.8792 63.205L34.1392 54.5731L70.8071 4.58144Z" fill="url(#paint6_linear_178_2239)"/>
<path d="M49.9653 113.152L33.9012 54.5343L86.6426 63.1578L49.9653 113.152Z" fill="url(#paint7_linear_178_2239)"/>
<path d="M70.8071 4.58168L59.8193 58.8586L34.1393 54.5733L70.8071 4.58168Z" fill="url(#paint8_linear_178_2239)"/>
<path d="M49.9652 113.152L33.9011 54.5343L59.8111 58.853L49.9652 113.152Z" fill="url(#paint9_linear_178_2239)"/>
<path fill-rule="evenodd" clip-rule="evenodd" d="M72.298 60.8122L65.0734 34.4495L48.5785 56.9337L48.4751 56.9168L55.6997 83.2795L72.1947 60.7953L72.298 60.8122Z" fill="url(#paint10_linear_178_2239)"/>
<defs>
<linearGradient id="paint0_linear_178_2239" x1="26.9241" y1="414.526" x2="71.1016" y2="399.344" gradientUnits="userSpaceOnUse">
<stop stop-color="#FF335F"/>
<stop offset="1" stop-color="#E4FA6B"/>
</linearGradient>
<linearGradient id="paint1_linear_178_2239" x1="53.7382" y1="406.703" x2="94.3267" y2="392.93" gradientUnits="userSpaceOnUse">
<stop stop-color="#FF335F"/>
<stop offset="1" stop-color="#E4FA6B"/>
</linearGradient>
<linearGradient id="paint2_linear_178_2239" x1="3.8947" y1="421.244" x2="46.9401" y2="406.51" gradientUnits="userSpaceOnUse">
<stop stop-color="#FF335F"/>
<stop offset="1" stop-color="#E4FA6B"/>
</linearGradient>
<linearGradient id="paint3_linear_178_2239" x1="103.05" y1="501.085" x2="58.8728" y2="516.266" gradientUnits="userSpaceOnUse">
<stop stop-color="#FF335F"/>
<stop offset="1" stop-color="#E4FA6B"/>
</linearGradient>
<linearGradient id="paint4_linear_178_2239" x1="76.2366" y1="508.907" x2="35.6481" y2="522.681" gradientUnits="userSpaceOnUse">
<stop stop-color="#FF335F"/>
<stop offset="1" stop-color="#E4FA6B"/>
</linearGradient>
<linearGradient id="paint5_linear_178_2239" x1="126.08" y1="494.367" x2="83.0341" y2="509.1" gradientUnits="userSpaceOnUse">
<stop stop-color="#FF335F"/>
<stop offset="1" stop-color="#E4FA6B"/>
</linearGradient>
<linearGradient id="paint6_linear_178_2239" x1="50.663" y1="46.7274" x2="63.2345" y2="15.2884" gradientUnits="userSpaceOnUse">
<stop stop-color="#FF335F"/>
<stop offset="1" stop-color="#E4FA6B"/>
</linearGradient>
<linearGradient id="paint7_linear_178_2239" x1="76.0268" y1="114.321" x2="29.622" y2="108.931" gradientUnits="userSpaceOnUse">
<stop stop-color="#FF335F"/>
<stop offset="1" stop-color="#E4FA6B"/>
</linearGradient>
<linearGradient id="paint8_linear_178_2239" x1="44.7468" y1="3.40943" x2="91.1517" y2="8.79128" gradientUnits="userSpaceOnUse">
<stop stop-color="#FF335F"/>
<stop offset="1" stop-color="#E4FA6B"/>
</linearGradient>
<linearGradient id="paint9_linear_178_2239" x1="62.2039" y1="55.0134" x2="71.7762" y2="85.7377" gradientUnits="userSpaceOnUse">
<stop stop-color="#FF335F"/>
<stop offset="1" stop-color="#E4FA6B"/>
</linearGradient>
<linearGradient id="paint10_linear_178_2239" x1="83.0231" y1="82.1318" x2="57.5919" y2="91.0372" gradientUnits="userSpaceOnUse">
<stop stop-color="#E4FA6B"/>
<stop offset="1" stop-color="#FF335F"/>
</linearGradient>
</defs>
</svg>
