<svg width="210" height="32" viewBox="0 0 210 32" fill="none" xmlns="http://www.w3.org/2000/svg">
<path d="M34.4217 17.2921C34.3268 12.6395 32.4462 8.21328 29.1885 4.97551C25.9307 1.73773 21.5593 -0.0499286 17.0241 0.0010616C12.489 0.0520518 8.1567 1.93757 4.96891 5.24782C1.78113 8.55806 -0.00454285 13.0255 8.6798e-06 17.6791H6.88547C6.83545 21.4256 8.23795 25.039 10.7844 27.7244C13.3309 30.4099 16.8128 31.9474 20.464 31.9987C24.1153 32.05 27.6369 30.6109 30.2541 27.9981C32.8713 25.3852 34.3698 21.8126 34.4198 18.0662C34.4198 17.9365 34.4198 17.803 34.4198 17.6791C34.4198 17.5553 34.4254 17.4218 34.4217 17.2921ZM20.6545 24.7518C19.2927 24.7518 17.9615 24.3375 16.8291 23.5612C15.6968 22.7849 14.8143 21.6815 14.2932 20.3905C13.772 19.0996 13.6357 17.679 13.9013 16.3086C14.167 14.9381 14.8228 13.6793 15.7857 12.6912C16.7487 11.7031 17.9756 11.0303 19.3112 10.7577C20.6469 10.4851 22.0313 10.625 23.2895 11.1597C24.5476 11.6944 25.623 12.6 26.3796 13.7618C27.1361 14.9236 27.54 16.2896 27.54 17.6869C27.5395 19.5601 26.8141 21.3565 25.5234 22.6813C24.2326 24.0061 22.482 24.7508 20.6564 24.7518H20.6545ZM132.406 6.61439C126.409 6.61439 121.53 11.5817 121.53 17.6869C121.53 23.8965 126.307 28.7594 132.406 28.7594C138.505 28.7594 143.278 23.8965 143.278 17.6869C143.278 11.5817 138.405 6.61439 132.408 6.61439H132.406ZM132.406 24.1171C129.2 24.1171 126.871 21.1797 126.871 17.6869C126.871 14.1941 129.198 11.2566 132.406 11.2566C135.539 11.2566 137.9 14.2502 137.9 17.6869C137.902 21.1797 135.591 24.1171 132.408 24.1171H132.406ZM84.6095 7.08848L84.5831 9.55183L84.1343 9.00033C83.1083 7.73867 81.1432 6.61245 78.2446 6.61245C72.9018 6.61245 68.5529 11.5798 68.5529 17.6849C68.5529 23.7901 72.9018 28.7574 78.2446 28.7574C81.1432 28.7574 83.1083 27.6312 84.1343 26.3695L84.5831 25.8181L84.6095 28.2814H89.8901V7.08655L84.6095 7.08848ZM84.9226 17.6927C84.9226 21.319 82.7557 24.1229 79.4704 24.1229C76.1852 24.1229 73.8938 21.319 73.8938 17.6927C73.8938 14.0664 76.187 11.2624 79.4704 11.2624C82.7538 11.2624 84.9226 14.0664 84.9226 17.6927ZM183.354 7.08848L183.328 9.55183L182.877 9.00033C181.853 7.73867 179.888 6.61245 176.989 6.61245C171.644 6.61245 167.297 11.5798 167.297 17.6849C167.297 23.7901 171.644 28.7574 176.989 28.7574C179.888 28.7574 181.853 27.6312 182.877 26.3695L183.328 25.8181L183.354 28.2814H188.634V7.08655L183.354 7.08848ZM183.667 17.6927C183.667 21.319 181.5 24.1229 178.215 24.1229C174.93 24.1229 172.638 21.319 172.638 17.6927C172.638 14.0664 174.931 11.2624 178.215 11.2624C181.498 11.2624 183.667 14.0664 183.667 17.6927ZM55.6306 11.2566C52.3718 11.2566 50.0955 14.0354 50.0955 17.6869C50.0955 21.3384 52.3718 24.1171 55.6306 24.1171C57.9295 24.1171 59.6495 22.7181 60.617 20.5024H65.956C64.6509 25.6807 60.8093 28.7594 55.6231 28.7594C49.4241 28.7594 44.747 23.9991 44.747 17.6869C44.747 11.3747 49.4241 6.61439 55.6231 6.61439C60.8093 6.61439 64.6509 9.69309 65.956 14.8713H60.617C59.6495 12.6557 57.9295 11.2566 55.6306 11.2566ZM106.199 16.3962L113.292 7.09042H117.837V28.2814H112.538V15.2584L106.239 23.5792L99.9024 15.2584V28.2814H94.6048V7.09042H99.148L106.199 16.3962ZM157.404 17.5243L167.399 28.2833H160.629L152.244 19.1285V28.2853H146.945V7.09235H152.244V16.3962L159.757 7.09235H166L157.404 17.5243ZM198.466 11.6533H192.231V7.09235H210V11.6533H203.765V28.2833H198.466V11.6533Z" fill="white"/>
</svg>
