<svg width="144" height="179" viewBox="0 0 144 179" fill="none" xmlns="http://www.w3.org/2000/svg">
<path fill-rule="evenodd" clip-rule="evenodd" d="M105.003 20.4367L77.0092 15.1587L69.7353 53.8995C47.1844 55.9619 27.8015 72.7427 23.4069 96.1486C18.0991 124.418 36.6654 151.647 64.876 156.966C93.0865 162.284 120.259 143.679 125.566 115.41C129.961 92.0043 117.99 69.3121 97.7292 59.1777L105.003 20.4367Z" fill="url(#paint0_linear_177_890)"/>
<ellipse rx="14.2436" ry="5.74562" transform="matrix(0.982686 0.185278 -0.184534 0.982826 90.9721 17.9793)" fill="url(#paint1_linear_177_890)"/>
<ellipse rx="41.3618" ry="33.6893" transform="matrix(0.526723 0.85048 -0.848849 0.527921 61.6512 114.039)" fill="url(#paint2_linear_177_890)"/>
<defs>
<linearGradient id="paint0_linear_177_890" x1="51.2539" y1="49.7297" x2="111.473" y2="48.3562" gradientUnits="userSpaceOnUse">
<stop stop-color="#FF335F"/>
<stop offset="1" stop-color="#E4FA6B"/>
</linearGradient>
<linearGradient id="paint1_linear_177_890" x1="15.1685" y1="11.4912" x2="6.18916" y2="5.61643" gradientUnits="userSpaceOnUse">
<stop stop-color="#FF335F"/>
<stop offset="1" stop-color="#E4FA6B"/>
</linearGradient>
<linearGradient id="paint2_linear_177_890" x1="47.2168" y1="-18.9304" x2="41.4858" y2="68.2046" gradientUnits="userSpaceOnUse">
<stop stop-color="#E4FA6B"/>
<stop offset="1" stop-color="#FF335F"/>
</linearGradient>
</defs>
</svg>
