<svg width="71" height="118" viewBox="0 0 71 118" fill="none" xmlns="http://www.w3.org/2000/svg">
<path d="M45.846 4.57875L61.9131 63.2558L9.16182 54.6236L45.846 4.57875Z" fill="url(#paint0_linear_178_2374)"/>
<path d="M24.9996 113.263L8.93247 54.5862L61.6838 63.2183L24.9996 113.263Z" fill="url(#paint1_linear_178_2374)"/>
<path d="M45.846 4.57887L34.8473 58.9092L9.16182 54.6237L45.846 4.57887Z" fill="url(#paint2_linear_178_2374)"/>
<path d="M24.9996 113.263L8.93245 54.5861L34.8473 58.9091L24.9996 113.263Z" fill="url(#paint3_linear_178_2374)"/>
<path fill-rule="evenodd" clip-rule="evenodd" d="M47.3365 60.8705L40.1106 34.4814L23.6124 56.9883L23.5091 56.9714L30.7351 83.3605L47.2332 60.8536L47.3365 60.8705Z" fill="url(#paint4_linear_178_2374)"/>
<defs>
<linearGradient id="paint0_linear_178_2374" x1="25.6907" y1="46.768" x2="38.2786" y2="15.3005" gradientUnits="userSpaceOnUse">
<stop stop-color="#FF335F"/>
<stop offset="1" stop-color="#E4FA6B"/>
</linearGradient>
<linearGradient id="paint1_linear_178_2374" x1="51.066" y1="114.433" x2="4.65149" y2="109.047" gradientUnits="userSpaceOnUse">
<stop stop-color="#FF335F"/>
<stop offset="1" stop-color="#E4FA6B"/>
</linearGradient>
<linearGradient id="paint2_linear_178_2374" x1="19.7796" y1="3.40945" x2="66.1941" y2="8.7955" gradientUnits="userSpaceOnUse">
<stop stop-color="#FF335F"/>
<stop offset="1" stop-color="#E4FA6B"/>
</linearGradient>
<linearGradient id="paint3_linear_178_2374" x1="37.2405" y1="55.0657" x2="46.8288" y2="85.8165" gradientUnits="userSpaceOnUse">
<stop stop-color="#FF335F"/>
<stop offset="1" stop-color="#E4FA6B"/>
</linearGradient>
<linearGradient id="paint4_linear_178_2374" x1="58.0636" y1="82.2117" x2="32.623" y2="91.1131" gradientUnits="userSpaceOnUse">
<stop stop-color="#E4FA6B"/>
<stop offset="1" stop-color="#FF335F"/>
</linearGradient>
</defs>
</svg>
