<svg width="331" height="441" viewBox="0 0 331 441" fill="none" xmlns="http://www.w3.org/2000/svg">
<rect x="91.157" width="246.126" height="394.098" rx="16" transform="rotate(13.3739 91.157 0)" fill="url(#paint0_linear_178_2448)"/>
<path d="M207.015 45.7972L183.47 154.037L217.623 49.3274L187.419 155.744L227.661 54.7273L191.128 158.156L237.018 61.9379L194.558 161.245L245.593 70.88L197.67 164.978L253.292 81.4559L200.431 169.313L260.03 93.5495L202.81 174.204L265.734 107.028L204.782 179.596L270.34 121.745L206.324 185.431L273.799 137.538L207.421 191.644L276.072 154.234L208.059 198.168L277.135 171.651L208.232 204.931L276.976 189.597L207.937 211.859L275.597 207.876L207.179 218.876L273.013 226.288L205.966 225.905L269.252 244.631L204.31 232.87L264.355 262.703L202.23 239.693L258.376 280.308L199.749 246.3L251.381 297.252L196.894 252.619L243.446 313.35L193.695 258.58L234.658 328.424L190.189 264.119L225.114 342.311L186.414 269.174L214.917 354.857L182.411 273.691L204.18 365.925L178.223 277.618L193.021 375.395L173.897 280.915L181.561 383.162L169.48 283.544L169.926 389.141L165.021 285.476L158.244 393.267L160.568 286.691L146.642 395.495L156.171 287.176L135.248 395.799L151.876 286.924L124.187 394.178L147.732 285.938L113.579 390.648L143.784 284.231L103.542 385.248L140.075 281.819L94.1843 378.037L136.645 278.73L85.6091 369.095L133.533 274.997L77.9103 358.519L130.772 270.662L71.1723 346.425L128.392 265.771L65.4689 332.946L126.421 260.379L60.8625 318.23L124.878 254.544L57.4037 302.437L123.782 248.331L55.1303 285.741L123.144 241.807L54.0672 268.324L122.971 235.044L54.2262 250.378L123.265 228.116L55.6054 232.099L124.023 221.099L58.1897 213.687L125.237 214.07L61.9509 195.344L126.892 207.105L66.8477 177.271L128.972 200.282L72.8264 159.667L131.454 193.675L79.8216 142.723L134.309 187.356L87.7566 126.625L137.507 181.394L96.5445 111.551L141.013 175.856L106.089 97.6643L144.788 170.801L116.286 85.118L148.792 166.284L127.022 74.0494L152.979 162.357L138.182 64.5797L157.305 159.06L149.642 56.8127L161.722 156.431L161.277 50.8335L166.181 154.499L172.959 46.7075L170.634 153.284L184.56 44.4801L175.032 152.799L195.954 44.1756L179.326 153.051L207.015 45.7972Z" fill="#FF3460"/>
<path d="M135.517 228.992C139.468 212.376 150.197 204.099 167.874 197.193C181.955 192.061 195.211 190.468 198.358 177.231C201.055 165.888 193.369 157.613 182.291 154.979C170.947 152.282 157.877 156.779 154.451 171.189L112.644 161.25C120.873 126.64 156.11 105.18 192.097 113.736C228.647 122.425 247.736 155.331 240.757 184.683C236.215 203.787 228.365 217.129 205.556 226.915C188.309 234.518 177.656 237.259 176.06 243.971L175.993 244.253L134.186 234.313L135.517 228.992ZM114.601 277.546C116.496 269.704 121.415 262.929 128.286 258.7C135.157 254.471 143.422 253.132 151.277 254.973C159.116 256.867 165.889 261.784 170.118 268.652C174.347 275.519 175.69 283.78 173.853 291.633C171.959 299.473 167.042 306.246 160.175 310.475C153.307 314.704 145.046 316.047 137.193 314.21C129.35 312.319 122.573 307.403 118.34 300.534C114.108 293.666 112.763 285.402 114.601 277.546V277.546Z" fill="#7E1598"/>
<path d="M128.615 221.774C132.565 205.158 143.295 196.881 160.971 189.975C175.053 184.843 188.309 183.25 191.456 170.013C194.153 158.67 186.466 150.395 175.388 147.761C164.045 145.064 150.974 149.561 147.548 163.971L105.741 154.032C113.97 119.422 149.208 97.9617 185.194 106.518C221.744 115.207 240.833 148.113 233.854 177.465C229.312 196.569 221.462 209.911 198.654 219.697C181.406 227.3 170.754 230.041 169.158 236.753L169.091 237.035L127.284 227.095L128.615 221.774ZM107.698 270.328C109.593 262.486 114.513 255.711 121.384 251.482C128.255 247.253 136.519 245.914 144.374 247.755C152.214 249.649 158.987 254.566 163.216 261.434C167.445 268.301 168.788 276.562 166.951 284.415C165.057 292.255 160.14 299.028 153.272 303.257C146.405 307.486 138.144 308.829 130.29 306.992C122.447 305.101 115.67 300.185 111.438 293.316C107.205 286.448 105.861 278.184 107.698 270.328Z" fill="url(#paint1_linear_178_2448)" stroke="#7E1598" stroke-width="4"/>
<mask id="path-5-inside-1_178_2448" fill="white">
<path fill-rule="evenodd" clip-rule="evenodd" d="M268.73 61.3083L141.565 31.0744C135.737 55.0127 113.364 70.1938 91.3916 65.1184L29.5671 325.155C51.5524 330.531 64.7154 354.31 58.9881 378.399C58.9673 378.487 58.9462 378.574 58.925 378.661L186.09 408.895C186.11 408.808 186.131 408.72 186.152 408.633C191.9 384.456 214.499 369.122 236.628 374.383C237.515 374.594 238.387 374.835 239.245 375.104L301.114 114.882C300.226 114.737 299.339 114.559 298.452 114.348C276.403 109.106 263.14 85.3952 268.73 61.3083Z"/>
</mask>
<path d="M141.565 31.0744L142.027 29.1287L140.092 28.6685L139.622 30.6014L141.565 31.0744ZM268.73 61.3083L270.678 61.7604L271.128 59.8227L269.192 59.3625L268.73 61.3083ZM91.3916 65.1184L91.8417 63.1697L89.9055 62.7224L89.4458 64.6557L91.3916 65.1184ZM29.5671 325.155L27.6214 324.692L27.1617 326.626L29.0921 327.098L29.5671 325.155ZM58.925 378.661L56.9818 378.188L56.5062 380.142L58.4624 380.607L58.925 378.661ZM186.09 408.895L185.627 410.841L187.584 411.306L188.038 409.347L186.09 408.895ZM239.245 375.104L238.646 377.012L240.694 377.656L241.191 375.567L239.245 375.104ZM301.114 114.882L303.059 115.345L303.556 113.256L301.437 112.909L301.114 114.882ZM141.102 33.0202L268.267 63.254L269.192 59.3625L142.027 29.1287L141.102 33.0202ZM90.9414 67.067C114.137 72.4251 137.461 56.3875 143.508 31.5475L139.622 30.6014C134.014 53.6379 112.591 67.9626 91.8417 63.1697L90.9414 67.067ZM31.5129 325.617L93.3373 65.581L89.4458 64.6557L27.6214 324.692L31.5129 325.617ZM60.9338 378.862C66.8766 353.866 53.2517 328.888 30.0422 323.212L29.0921 327.098C49.8531 332.174 62.5541 354.754 57.0423 377.937L60.9338 378.862ZM60.8683 379.135C60.8903 379.044 60.9122 378.953 60.9338 378.862L57.0423 377.937C57.0223 378.021 57.0022 378.105 56.9818 378.188L60.8683 379.135ZM186.553 406.95L59.3876 376.716L58.4624 380.607L185.627 410.841L186.553 406.95ZM188.038 409.347C188.058 409.264 188.077 409.18 188.097 409.096L184.206 408.17C184.184 408.261 184.163 408.352 184.142 408.443L188.038 409.347ZM188.097 409.096C193.629 385.828 215.269 371.361 236.166 376.329L237.091 372.438C213.728 366.883 190.17 383.085 184.206 408.17L188.097 409.096ZM236.166 376.329C237.006 376.529 237.833 376.757 238.646 377.012L239.845 373.196C238.942 372.913 238.024 372.659 237.091 372.438L236.166 376.329ZM299.168 114.42L237.299 374.642L241.191 375.567L303.059 115.345L299.168 114.42ZM297.99 116.294C298.922 116.516 299.856 116.703 300.79 116.856L301.437 112.909C300.597 112.771 299.755 112.603 298.915 112.403L297.99 116.294ZM266.782 60.8561C260.981 85.8497 274.712 110.76 297.99 116.294L298.915 112.403C278.094 107.452 265.298 84.9407 270.678 61.7604L266.782 60.8561Z" fill="url(#paint2_linear_178_2448)" mask="url(#path-5-inside-1_178_2448)"/>
<mask id="path-7-inside-2_178_2448" fill="white">
<path fill-rule="evenodd" clip-rule="evenodd" d="M308.727 109.563C307.019 109.41 305.304 109.132 303.592 108.725C282.655 103.747 270.069 81.2627 275.48 58.5042C275.943 56.5571 276.522 54.6711 277.208 52.8531L137.309 19.5917C137.111 21.5243 136.783 23.4703 136.319 25.4185C131.046 47.6008 110.227 61.6501 89.8208 56.7983C88.9295 56.5865 88.0539 56.342 87.1945 56.0664L22.3096 328.975L22.3208 328.978C43.92 334.113 56.9044 357.309 51.3223 380.788C50.9663 382.285 50.5434 383.748 50.058 385.172L190.478 418.557C190.647 416.182 191.011 413.783 191.583 411.38C196.822 389.342 217.505 375.384 237.779 380.204C239.91 380.71 241.951 381.404 243.892 382.266L308.727 109.563Z"/>
</mask>
<path d="M308.727 109.563L309.7 109.795L309.968 108.671L308.817 108.567L308.727 109.563ZM277.208 52.8531L278.144 53.2062L278.545 52.143L277.44 51.8802L277.208 52.8531ZM137.309 19.5917L137.541 18.6188L136.431 18.355L136.315 19.4893L137.309 19.5917ZM87.1945 56.0664L87.4998 55.1142L86.4714 54.7844L86.2216 55.8351L87.1945 56.0664ZM22.3096 328.975L21.3367 328.744L21.1054 329.717L22.0783 329.948L22.3096 328.975ZM22.3208 328.978L22.0895 329.951L22.3208 328.978ZM50.058 385.172L49.1115 384.849L48.7567 385.891L49.8267 386.145L50.058 385.172ZM190.478 418.557L190.247 419.53L191.392 419.802L191.476 418.628L190.478 418.557ZM243.892 382.266L243.486 383.18L244.586 383.668L244.865 382.497L243.892 382.266ZM303.823 107.752C302.119 107.347 300.473 106.823 298.889 106.19L298.146 108.047C299.821 108.716 301.561 109.27 303.36 109.698L303.823 107.752ZM289.972 100.994C287.276 98.8436 284.891 96.3109 282.867 93.4808L281.24 94.6443C283.368 97.6197 285.88 100.288 288.725 102.557L289.972 100.994ZM277.985 84.3381C276.774 81.1459 275.939 77.7595 275.525 74.2551L273.539 74.4897C273.972 78.1559 274.846 81.7019 276.116 85.0477L277.985 84.3381ZM275.539 63.8654C275.742 62.1626 276.045 60.4501 276.453 58.7355L274.507 58.2729C274.082 60.062 273.765 61.8499 273.553 63.6285L275.539 63.8654ZM276.453 58.7355C276.565 58.2644 276.684 57.797 276.809 57.3334L274.879 56.8096C274.748 57.2935 274.624 57.7813 274.507 58.2729L276.453 58.7355ZM277.655 54.5672C277.811 54.1093 277.974 53.6556 278.144 53.2062L276.273 52.5C276.096 52.9695 275.925 53.4434 275.762 53.9216L277.655 54.5672ZM277.44 51.8802L272.443 50.6923L271.981 52.638L276.977 53.8259L277.44 51.8802ZM262.451 48.3165L252.458 45.9406L251.995 47.8864L261.988 50.2622L262.451 48.3165ZM242.465 43.5648L232.472 41.189L232.01 43.1348L242.002 45.5106L242.465 43.5648ZM222.479 38.8132L212.487 36.4374L212.024 38.3831L222.017 40.759L222.479 38.8132ZM202.494 34.0616L192.501 31.6858L192.039 33.6315L202.031 36.0073L202.494 34.0616ZM182.508 29.3099L172.516 26.9341L172.053 28.8799L182.046 31.2557L182.508 29.3099ZM162.523 24.5583L152.53 22.1825L152.067 24.1283L162.06 26.5041L162.523 24.5583ZM142.537 19.8067L137.541 18.6188L137.078 20.5645L142.075 21.7524L142.537 19.8067ZM136.315 19.4893C136.266 19.9669 136.208 20.4454 136.143 20.9245L138.125 21.1949C138.193 20.6939 138.253 20.1936 138.304 19.6941L136.315 19.4893ZM135.658 23.7749C135.562 24.2454 135.459 24.7162 135.347 25.1872L137.292 25.6498C137.409 25.1578 137.518 24.6659 137.618 24.1743L135.658 23.7749ZM135.347 25.1872C134.95 26.8574 134.462 28.48 133.893 30.0503L135.773 30.7325C136.369 29.0904 136.878 27.3945 137.292 25.6498L135.347 25.1872ZM129.349 39.0938C127.453 41.9607 125.242 44.5405 122.789 46.7861L124.139 48.2614C126.714 45.9048 129.031 43.2 131.017 40.1973L129.349 39.0938ZM114.535 52.5988C111.534 54.1731 108.349 55.3305 105.061 56.0187L105.471 57.9762C108.946 57.2489 112.305 56.0273 115.464 54.3699L114.535 52.5988ZM95.0286 56.6293C93.3734 56.4859 91.7116 56.22 90.0521 55.8255L89.5895 57.7712C91.3448 58.1886 93.1035 58.47 94.8559 58.6218L95.0286 56.6293ZM90.0521 55.8255C89.8367 55.7743 89.6223 55.7211 89.4089 55.666L88.9092 57.6026C89.1349 57.6609 89.3617 57.7171 89.5895 57.7712L90.0521 55.8255ZM88.1326 55.3104C87.9206 55.2469 87.7097 55.1815 87.4998 55.1142L86.8891 57.0187C87.1113 57.0899 87.3345 57.1591 87.5587 57.2263L88.1326 55.3104ZM86.2216 55.8351L84.9738 61.0834L86.9196 61.546L88.1673 56.2977L86.2216 55.8351ZM82.4782 71.5799L79.9827 82.0764L81.9284 82.539L84.424 72.0425L82.4782 71.5799ZM77.4871 92.5729L74.9915 103.069L76.9373 103.532L79.4328 93.0355L77.4871 92.5729ZM72.4959 113.566L70.0004 124.062L71.9461 124.525L74.4417 114.028L72.4959 113.566ZM67.5048 134.559L65.0092 145.055L66.955 145.518L69.4506 135.021L67.5048 134.559ZM62.5137 155.552L60.0181 166.048L61.9638 166.511L64.4594 156.014L62.5137 155.552ZM57.5225 176.545L55.0269 187.041L56.9727 187.504L59.4683 177.007L57.5225 176.545ZM52.5314 197.538L50.0358 208.034L51.9816 208.497L54.4771 198L52.5314 197.538ZM47.5402 218.531L45.0447 229.027L46.9904 229.49L49.486 218.993L47.5402 218.531ZM42.5491 239.524L40.0535 250.02L41.9993 250.483L44.4948 239.986L42.5491 239.524ZM37.5579 260.517L35.0624 271.013L37.0081 271.476L39.5037 260.979L37.5579 260.517ZM32.5668 281.51L30.0712 292.006L32.017 292.469L34.5126 281.972L32.5668 281.51ZM27.5756 302.503L25.0801 312.999L27.0258 313.462L29.5214 302.965L27.5756 302.503ZM22.5845 323.496L21.3367 328.744L23.2825 329.207L24.5303 323.958L22.5845 323.496ZM22.0783 329.948L22.0811 329.949L22.5437 328.003L22.5409 328.002L22.0783 329.948ZM22.0867 329.95L22.0895 329.951L22.5521 328.005L22.5493 328.004L22.0867 329.95ZM22.0895 329.951C23.8488 330.369 25.5489 330.91 27.1843 331.564L27.9269 329.707C26.2009 329.017 24.4072 328.446 22.5521 328.005L22.0895 329.951ZM36.391 336.929C39.175 339.149 41.6375 341.764 43.7273 344.686L45.3541 343.523C43.1603 340.456 40.5711 337.705 37.638 335.366L36.391 336.929ZM48.7669 354.126C50.0176 357.421 50.8792 360.917 51.3066 364.535L53.2928 364.301C52.8462 360.521 51.9458 356.865 50.6368 353.416L48.7669 354.126ZM51.2929 375.261C51.0832 377.019 50.7702 378.787 50.3494 380.557L52.2952 381.02C52.7337 379.175 53.0601 377.332 53.2788 375.498L51.2929 375.261ZM50.3494 380.557C50.263 380.92 50.1726 381.282 50.0782 381.641L52.0125 382.149C52.1109 381.775 52.2051 381.398 52.2952 381.02L50.3494 380.557ZM49.4591 383.788C49.3472 384.144 49.2313 384.498 49.1115 384.849L51.0045 385.495C51.1295 385.128 51.2504 384.759 51.3671 384.388L49.4591 383.788ZM49.8267 386.145L54.8417 387.337L55.3043 385.391L50.2893 384.199L49.8267 386.145ZM64.8717 389.722L74.9017 392.107L75.3643 390.161L65.3343 387.776L64.8717 389.722ZM84.9317 394.491L94.9617 396.876L95.4243 394.93L85.3943 392.545L84.9317 394.491ZM104.992 399.261L115.022 401.645L115.484 399.699L105.454 397.315L104.992 399.261ZM125.052 404.03L135.082 406.415L135.544 404.469L125.514 402.084L125.052 404.03ZM145.112 408.799L155.142 411.184L155.604 409.238L145.574 406.853L145.112 408.799ZM165.172 413.569L175.202 415.953L175.664 414.007L165.634 411.623L165.172 413.569ZM185.232 418.338L190.247 419.53L190.709 417.584L185.694 416.392L185.232 418.338ZM191.476 418.628C191.517 418.04 191.572 417.45 191.638 416.86L189.651 416.636C189.581 417.254 189.524 417.871 189.481 418.486L191.476 418.628ZM192.179 413.348C192.292 412.77 192.418 412.191 192.555 411.611L190.61 411.149C190.466 411.754 190.335 412.359 190.216 412.964L192.179 413.348ZM192.555 411.611C192.95 409.952 193.434 408.34 194 406.78L192.12 406.098C191.528 407.73 191.022 409.415 190.61 411.149L192.555 411.611ZM198.513 397.797C200.397 394.949 202.593 392.387 205.03 390.156L203.679 388.681C201.121 391.022 198.819 393.71 196.845 396.694L198.513 397.797ZM213.229 384.382C216.21 382.818 219.373 381.668 222.639 380.985L222.229 379.027C218.777 379.75 215.439 380.964 212.3 382.611L213.229 384.382ZM232.605 380.378C234.249 380.521 235.9 380.785 237.548 381.177L238.011 379.231C236.266 378.816 234.519 378.537 232.777 378.386L232.605 380.378ZM237.548 381.177C238.059 381.298 238.565 381.431 239.066 381.574L239.617 379.652C239.087 379.5 238.552 379.36 238.011 379.231L237.548 381.177ZM242.038 382.577C242.527 382.767 243.01 382.968 243.486 383.18L244.297 381.352C243.793 381.128 243.282 380.915 242.764 380.713L242.038 382.577ZM244.865 382.497L246.111 377.253L244.166 376.79L242.919 382.034L244.865 382.497ZM248.605 366.764L251.099 356.275L249.153 355.813L246.659 366.301L248.605 366.764ZM253.593 345.787L256.086 335.298L254.14 334.836L251.647 345.324L253.593 345.787ZM258.58 324.81L261.074 314.321L259.128 313.859L256.634 324.347L258.58 324.81ZM263.567 303.833L266.061 293.344L264.115 292.882L261.621 303.37L263.567 303.833ZM268.555 282.856L271.048 272.367L269.103 271.905L266.609 282.393L268.555 282.856ZM273.542 261.879L276.036 251.39L274.09 250.927L271.596 261.416L273.542 261.879ZM278.529 240.901L281.023 230.413L279.077 229.95L276.584 240.439L278.529 240.901ZM283.517 219.924L286.01 209.436L284.065 208.973L281.571 219.462L283.517 219.924ZM288.504 198.947L290.998 188.459L289.052 187.996L286.558 198.485L288.504 198.947ZM293.491 177.97L295.985 167.482L294.039 167.019L291.546 177.508L293.491 177.97ZM298.479 156.993L300.972 146.505L299.027 146.042L296.533 156.53L298.479 156.993ZM303.466 136.016L305.96 125.527L304.014 125.065L301.52 135.553L303.466 136.016ZM308.454 115.039L309.7 109.795L307.755 109.332L306.508 114.576L308.454 115.039ZM308.817 108.567C308.398 108.53 307.978 108.484 307.559 108.431L307.308 110.415C307.751 110.472 308.195 110.519 308.638 110.559L308.817 108.567ZM305.06 108.023C304.648 107.941 304.235 107.85 303.823 107.752L303.36 109.698C303.796 109.802 304.231 109.897 304.667 109.984L305.06 108.023ZM308.727 109.563L310.673 110.026L311.208 107.778L308.907 107.571L308.727 109.563ZM277.208 52.8531L279.08 53.5593L279.882 51.433L277.671 50.9073L277.208 52.8531ZM137.309 19.5917L137.772 17.6459L135.554 17.1184L135.32 19.3869L137.309 19.5917ZM87.1945 56.0664L87.8052 54.162L85.7483 53.5024L85.2487 55.6038L87.1945 56.0664ZM22.3096 328.975L20.3638 328.513L19.9012 330.458L21.847 330.921L22.3096 328.975ZM22.3208 328.978L21.8582 330.924L22.3208 328.978ZM50.058 385.172L48.1649 384.527L47.4553 386.609L49.5954 387.118L50.058 385.172ZM190.478 418.557L190.015 420.503L192.306 421.048L192.473 418.699L190.478 418.557ZM243.892 382.266L243.08 384.094L245.281 385.07L245.838 382.728L243.892 382.266ZM304.054 106.779C302.398 106.386 300.799 105.876 299.26 105.261L297.775 108.975C299.495 109.663 301.281 110.232 303.129 110.671L304.054 106.779ZM290.596 100.212C287.974 98.1212 285.652 95.6565 283.68 92.8991L280.427 95.226C282.607 98.2742 285.182 101.011 288.102 103.339L290.596 100.212ZM278.92 83.9833C277.738 80.8679 276.923 77.5613 276.519 74.1377L272.546 74.6071C272.989 78.3541 273.882 81.9798 275.181 85.4026L278.92 83.9833ZM276.532 63.9838C276.73 62.319 277.027 60.6441 277.426 58.9668L273.534 58.0416C273.1 59.8679 272.777 61.6935 272.56 63.5101L276.532 63.9838ZM277.426 58.9668C277.535 58.5059 277.651 58.0487 277.775 57.5952L273.914 56.5478C273.78 57.0418 273.653 57.5398 273.534 58.0416L277.426 58.9668ZM278.602 54.89C278.754 54.4423 278.914 53.9987 279.08 53.5593L275.337 52.1468C275.156 52.6264 274.982 53.1104 274.816 53.5988L278.602 54.89ZM277.671 50.9073L272.675 49.7194L271.749 53.6109L276.746 54.7988L277.671 50.9073ZM262.682 47.3436L252.689 44.9678L251.764 48.8593L261.757 51.2351L262.682 47.3436ZM242.696 42.5919L232.704 40.2161L231.778 44.1077L241.771 46.4835L242.696 42.5919ZM222.711 37.8403L212.718 35.4645L211.793 39.356L221.786 41.7318L222.711 37.8403ZM202.725 33.0887L192.732 30.7129L191.807 34.6044L201.8 36.9802L202.725 33.0887ZM182.74 28.3371L172.747 25.9612L171.822 29.8528L181.814 32.2286L182.74 28.3371ZM162.754 23.5854L152.761 21.2096L151.836 25.1011L161.829 27.477L162.754 23.5854ZM142.768 18.8338L137.772 17.6459L136.847 21.5374L141.843 22.7253L142.768 18.8338ZM135.32 19.3869C135.272 19.8535 135.216 20.3211 135.152 20.7893L139.115 21.3301C139.185 20.8182 139.246 20.3069 139.299 19.7965L135.32 19.3869ZM134.678 23.5752C134.585 24.0351 134.483 24.4954 134.374 24.9559L138.265 25.8811C138.385 25.3786 138.496 24.8762 138.598 24.374L134.678 23.5752ZM134.374 24.9559C133.985 26.5888 133.509 28.1748 132.953 29.7091L136.713 31.0736C137.322 29.3957 137.842 27.663 138.265 25.8811L134.374 24.9559ZM128.515 38.5421C126.664 41.341 124.506 43.8584 122.114 46.0485L124.815 48.999C127.45 46.5869 129.82 43.8196 131.851 40.749L128.515 38.5421ZM114.07 51.7133C111.148 53.2461 108.051 54.3712 104.856 55.0399L105.676 58.955C109.244 58.2082 112.69 56.9543 115.929 55.2555L114.07 51.7133ZM95.1149 55.633C93.5083 55.4938 91.895 55.2357 90.2834 54.8526L89.3582 58.7441C91.1614 59.1728 92.9686 59.462 94.7696 59.6181L95.1149 55.633ZM90.2834 54.8526C90.0742 54.8029 89.866 54.7513 89.6588 54.6978L88.6593 58.5709C88.8912 58.6307 89.1242 58.6885 89.3582 58.7441L90.2834 54.8526ZM88.4195 54.3524C88.2137 54.2908 88.009 54.2273 87.8052 54.162L86.5837 57.9709C86.812 58.0441 87.0414 58.1152 87.2718 58.1842L88.4195 54.3524ZM85.2487 55.6038L84.0009 60.8521L87.8924 61.7773L89.1402 56.529L85.2487 55.6038ZM81.5053 71.3486L79.0098 81.8451L82.9013 82.7703L85.3969 72.2738L81.5053 71.3486ZM76.5142 92.3416L74.0186 102.838L77.9102 103.763L80.4057 93.2668L76.5142 92.3416ZM71.5231 113.335L69.0275 123.831L72.919 124.756L75.4146 114.26L71.5231 113.335ZM66.5319 134.328L64.0363 144.824L67.9279 145.749L70.4234 135.253L66.5319 134.328ZM61.5408 155.321L59.0452 165.817L62.9367 166.742L65.4323 156.246L61.5408 155.321ZM56.5496 176.313L54.0541 186.81L57.9456 187.735L60.4412 177.239L56.5496 176.313ZM51.5585 197.306L49.0629 207.803L52.9544 208.728L55.45 198.232L51.5585 197.306ZM46.5673 218.299L44.0718 228.796L47.9633 229.721L50.4589 219.225L46.5673 218.299ZM41.5762 239.292L39.0806 249.789L42.9721 250.714L45.4677 240.218L41.5762 239.292ZM36.5851 260.285L34.0895 270.782L37.981 271.707L40.4766 261.211L36.5851 260.285ZM31.5939 281.278L29.0983 291.775L32.9899 292.7L35.4854 282.204L31.5939 281.278ZM26.6028 302.271L24.1072 312.768L27.9987 313.693L30.4943 303.197L26.6028 302.271ZM21.6116 323.264L20.3638 328.513L24.2554 329.438L25.5031 324.19L21.6116 323.264ZM21.847 330.921L21.8498 330.922L22.775 327.03L22.7722 327.03L21.847 330.921ZM21.8554 330.923L21.8582 330.924L22.7834 327.032L22.7806 327.032L21.8554 330.923ZM21.8582 330.924C23.5696 331.331 25.2229 331.857 26.813 332.493L28.2982 328.779C26.5269 328.07 24.6864 327.485 22.7834 327.032L21.8582 330.924ZM35.7675 337.711C38.4769 339.872 40.8761 342.419 42.9139 345.268L46.1674 342.941C43.9217 339.801 41.2692 336.982 38.2615 334.584L35.7675 337.711ZM47.832 354.48C49.0535 357.699 49.8956 361.116 50.3135 364.653L54.2859 364.183C53.8298 360.323 52.9099 356.587 51.5717 353.061L47.832 354.48ZM50.2999 375.143C50.0948 376.863 49.7885 378.593 49.3765 380.326L53.2681 381.251C53.7154 379.369 54.0485 377.488 54.2718 375.616L50.2999 375.143ZM49.3765 380.326C49.2919 380.681 49.2034 381.035 49.111 381.387L52.9796 382.403C53.08 382.021 53.1762 381.637 53.2681 381.251L49.3765 380.326ZM48.5051 383.488C48.3956 383.837 48.2822 384.183 48.1649 384.527L51.9511 385.817C52.0786 385.443 52.202 385.066 52.3211 384.687L48.5051 383.488ZM49.5954 387.118L54.6104 388.31L55.5356 384.419L50.5206 383.226L49.5954 387.118ZM64.6404 390.695L74.6704 393.079L75.5956 389.188L65.5656 386.803L64.6404 390.695ZM84.7004 395.464L94.7304 397.849L95.6556 393.957L85.6256 391.573L84.7004 395.464ZM104.76 400.233L114.79 402.618L115.716 398.727L105.686 396.342L104.76 400.233ZM124.82 405.003L134.85 407.387L135.776 403.496L125.746 401.111L124.82 405.003ZM144.88 409.772L154.91 412.157L155.836 408.265L145.806 405.881L144.88 409.772ZM164.94 414.541L174.97 416.926L175.896 413.035L165.866 410.65L164.94 414.541ZM185 419.311L190.015 420.503L190.941 416.612L185.926 415.419L185 419.311ZM192.473 418.699C192.514 418.125 192.567 417.549 192.632 416.971L188.657 416.524C188.586 417.156 188.528 417.786 188.483 418.415L192.473 418.699ZM193.16 413.54C193.271 412.975 193.394 412.409 193.528 411.843L189.637 410.917C189.49 411.536 189.356 412.154 189.235 412.772L193.16 413.54ZM193.528 411.843C193.914 410.221 194.387 408.646 194.94 407.122L191.18 405.757C190.575 407.425 190.058 409.146 189.637 410.917L193.528 411.843ZM199.347 398.349C201.186 395.569 203.329 393.069 205.705 390.893L203.004 387.943C200.385 390.34 198.03 393.09 196.011 396.142L199.347 398.349ZM213.693 385.267C216.595 383.745 219.672 382.628 222.844 381.964L222.024 378.048C218.478 378.791 215.054 380.037 211.835 381.725L213.693 385.267ZM232.518 381.375C234.114 381.513 235.716 381.769 237.317 382.15L238.242 378.258C236.45 377.832 234.654 377.545 232.864 377.389L232.518 381.375ZM237.317 382.15C237.813 382.268 238.304 382.396 238.79 382.536L239.892 378.691C239.348 378.534 238.798 378.39 238.242 378.258L237.317 382.15ZM241.675 383.508C242.149 383.693 242.618 383.888 243.08 384.094L244.703 380.438C244.184 380.207 243.659 379.988 243.127 379.781L241.675 383.508ZM245.838 382.728L247.084 377.484L243.193 376.559L241.946 381.803L245.838 382.728ZM249.578 366.995L252.072 356.507L248.18 355.582L245.687 366.07L249.578 366.995ZM254.565 346.018L257.059 335.53L253.168 334.604L250.674 345.093L254.565 346.018ZM259.553 325.041L262.046 314.553L258.155 313.627L255.661 324.116L259.553 325.041ZM264.54 304.064L267.034 293.576L263.142 292.65L260.649 303.139L264.54 304.064ZM269.527 283.087L272.021 272.598L268.13 271.673L265.636 282.162L269.527 283.087ZM274.515 262.11L277.009 251.621L273.117 250.696L270.623 261.185L274.515 262.11ZM279.502 241.133L281.996 230.644L278.104 229.719L275.611 240.208L279.502 241.133ZM284.49 220.156L286.983 209.667L283.092 208.742L280.598 219.23L284.49 220.156ZM289.477 199.179L291.971 188.69L288.079 187.765L285.585 198.253L289.477 199.179ZM294.464 178.202L296.958 167.713L293.066 166.788L290.573 177.276L294.464 178.202ZM299.452 157.224L301.945 146.736L298.054 145.811L295.56 156.299L299.452 157.224ZM304.439 136.247L306.933 125.759L303.041 124.834L300.548 135.322L304.439 136.247ZM309.426 115.27L310.673 110.026L306.782 109.101L305.535 114.345L309.426 115.27ZM308.907 107.571C308.5 107.535 308.092 107.491 307.684 107.439L307.182 111.407C307.638 111.465 308.093 111.514 308.548 111.555L308.907 107.571ZM305.256 107.043C304.856 106.962 304.455 106.875 304.054 106.779L303.129 110.671C303.576 110.777 304.023 110.875 304.471 110.965L305.256 107.043Z" fill="url(#paint3_linear_178_2448)" mask="url(#path-7-inside-2_178_2448)"/>
<circle cx="301.961" cy="72.9337" r="15.2904" transform="rotate(13.3739 301.961 72.9337)" fill="url(#paint4_radial_178_2448)"/>
<circle cx="109.056" cy="27.0701" r="15.2904" transform="rotate(13.3739 109.056 27.0701)" fill="url(#paint5_radial_178_2448)"/>
<circle cx="222.213" cy="408.358" r="15.2904" transform="rotate(13.3739 222.213 408.358)" fill="url(#paint6_radial_178_2448)"/>
<circle cx="29.3084" cy="362.494" r="15.2904" transform="rotate(13.3739 29.3084 362.494)" fill="url(#paint7_radial_178_2448)"/>
<defs>
<linearGradient id="paint0_linear_178_2448" x1="214.22" y1="0" x2="214.22" y2="394.098" gradientUnits="userSpaceOnUse">
<stop stop-color="#FF335F"/>
<stop offset="1" stop-color="#9D0FC0"/>
</linearGradient>
<linearGradient id="paint1_linear_178_2448" x1="183.95" y1="106.222" x2="135.9" y2="308.326" gradientUnits="userSpaceOnUse">
<stop stop-color="#FF335F"/>
<stop offset="0.473958" stop-color="#E4FA6B"/>
<stop offset="1" stop-color="#FF335F"/>
</linearGradient>
<linearGradient id="paint2_linear_178_2448" x1="95.1307" y1="49.3912" x2="251.292" y2="404.441" gradientUnits="userSpaceOnUse">
<stop stop-color="#E4FA6B"/>
<stop offset="1" stop-color="#FF335F"/>
</linearGradient>
<linearGradient id="paint3_linear_178_2448" x1="91.1341" y1="39.496" x2="254.804" y2="414.087" gradientUnits="userSpaceOnUse">
<stop stop-color="#E4FA6B"/>
<stop offset="1" stop-color="#FF335F"/>
</linearGradient>
<radialGradient id="paint4_radial_178_2448" cx="0" cy="0" r="1" gradientUnits="userSpaceOnUse" gradientTransform="translate(310.84 68.9878) rotate(114.775) scale(21.1863)">
<stop stop-color="#E4FA6B"/>
<stop offset="0.567708" stop-color="#FF335F"/>
<stop offset="1" stop-color="#7E1598"/>
</radialGradient>
<radialGradient id="paint5_radial_178_2448" cx="0" cy="0" r="1" gradientUnits="userSpaceOnUse" gradientTransform="translate(117.935 23.1242) rotate(114.775) scale(21.1863)">
<stop stop-color="#E4FA6B"/>
<stop offset="0.567708" stop-color="#FF335F"/>
<stop offset="1" stop-color="#7E1598"/>
</radialGradient>
<radialGradient id="paint6_radial_178_2448" cx="0" cy="0" r="1" gradientUnits="userSpaceOnUse" gradientTransform="translate(231.092 404.412) rotate(114.775) scale(21.1863)">
<stop stop-color="#E4FA6B"/>
<stop offset="0.567708" stop-color="#FF335F"/>
<stop offset="1" stop-color="#7E1598"/>
</radialGradient>
<radialGradient id="paint7_radial_178_2448" cx="0" cy="0" r="1" gradientUnits="userSpaceOnUse" gradientTransform="translate(38.1867 358.548) rotate(114.775) scale(21.1863)">
<stop stop-color="#E4FA6B"/>
<stop offset="0.567708" stop-color="#FF335F"/>
<stop offset="1" stop-color="#7E1598"/>
</radialGradient>
</defs>
</svg>
