<svg width="29" height="29" viewBox="0 0 29 29" fill="none" xmlns="http://www.w3.org/2000/svg">
<path d="M20.0743 1.00562L16.5664 1C12.6254 1 10.0786 3.60806 10.0786 7.64474V10.7084H6.55158C6.2468 10.7084 6 10.955 6 11.2592V15.6981C6 16.0023 6.24708 16.2487 6.55158 16.2487H10.0786V27.4495C10.0786 27.7537 10.3254 28 10.6302 28H15.2319C15.5367 28 15.7835 27.7534 15.7835 27.4495V16.2487H19.9074C20.2122 16.2487 20.459 16.0023 20.459 15.6981L20.4607 11.2592C20.4607 11.1132 20.4024 10.9733 20.2991 10.8699C20.1958 10.7665 20.0551 10.7084 19.9088 10.7084H15.7835V8.1113C15.7835 6.86302 16.0815 6.22933 17.7106 6.22933L20.0737 6.22849C20.3782 6.22849 20.625 5.98187 20.625 5.67794V1.55616C20.625 1.25252 20.3785 1.00618 20.0743 1.00562Z" fill="#7E1598"/>
</svg>
