<svg width="29" height="29" viewBox="0 0 29 29" fill="none" xmlns="http://www.w3.org/2000/svg">
<g clip-path="url(#clip0_177_168)">
<path d="M27.2812 7.71653C26.3554 8.12978 25.3619 8.41004 24.3181 8.53516C25.3839 7.89229 26.1997 6.87261 26.5864 5.66131C25.5867 6.25665 24.4831 6.68894 23.3073 6.92328C22.3657 5.91151 21.0263 5.28131 19.5408 5.28131C16.6908 5.28131 14.38 7.60888 14.38 10.478C14.38 10.8849 14.4256 11.2823 14.5137 11.6624C10.2253 11.4454 6.42274 9.37594 3.87772 6.23131C3.43284 6.99769 3.17976 7.89067 3.17976 8.8439C3.17976 10.6474 4.09151 12.2387 5.47486 13.1697C4.62912 13.1412 3.8337 12.9069 3.13734 12.5173V12.5823C3.13734 15.0998 4.91681 17.201 7.27633 17.6792C6.84402 17.7963 6.38817 17.8613 5.91657 17.8613C5.58333 17.8613 5.26107 17.828 4.94509 17.7647C5.60216 19.831 7.50742 21.3336 9.76479 21.3748C7.99945 22.7682 5.77353 23.5963 3.35585 23.5963C2.93929 23.5963 2.52898 23.5709 2.125 23.525C4.40908 25.0023 7.12074 25.8637 10.0352 25.8637C19.5283 25.8637 24.7174 17.9436 24.7174 11.0749L24.7001 10.402C25.714 9.67358 26.5911 8.7584 27.2812 7.71653Z" fill="#7E1598"/>
</g>
<defs>
<clipPath id="clip0_177_168">
<rect width="28.5" height="28.5" fill="white" transform="translate(0.5 0.25)"/>
</clipPath>
</defs>
</svg>
